<svg width="360" height="360" viewBox="0 0 360 360" fill="none" xmlns="http://www.w3.org/2000/svg">
<path d="M39.2375 148.925C22.4994 100.272 12.8799 17.2263 96.0938 2.59214C179.308 -12.042 213.953 39.711 272.314 47.5614C330.676 55.4119 366.827 92.1751 358.919 168.551C351.012 244.927 296.411 248.141 268.924 254.564C268.924 254.564 222.23 275.622 191.732 313.812C161.233 352.002 33.5859 343.08 23.418 269.914C13.255 196.748 61.829 214.596 39.2375 148.925Z" fill="#E5F5F4"/>
<path d="M196.772 360C282.396 360 351.808 350.794 351.808 339.438C351.808 328.082 282.396 318.876 196.772 318.876C111.148 318.876 41.7354 328.082 41.7354 339.438C41.7354 350.794 111.148 360 196.772 360Z" fill="#CCCCCC"/>
<path opacity="0.1" d="M150.169 352.05C187.027 352.05 216.907 347.254 216.907 341.337C216.907 335.42 187.027 330.623 150.169 330.623C113.311 330.623 83.4312 335.42 83.4312 341.337C83.4312 347.254 113.311 352.05 150.169 352.05Z" fill="#303030"/>
<path opacity="0.5" d="M146.727 205.608C130.183 186.132 111.685 201.745 108.623 219.208C104.663 241.822 108.39 276.217 113.328 299.293C94.4 240.529 82.1251 205.381 59.2816 190.883C32.3839 173.81 4.70501 185.95 0.516133 220.781C-3.67274 255.613 53.023 277.083 63.026 282.224C80.9848 291.455 99.4957 311.302 111.501 324.246C70.8111 296.582 37.1205 262.118 15.6239 269.376C-8.47675 277.514 -1.12262 300.699 13.7427 310.137C35.9667 324.25 76.4592 334.695 98.8537 337.397C118.352 339.75 131.588 339.351 128.872 335.734C129.051 335.203 129.204 334.528 129.33 333.703C137.492 278.647 163.272 225.084 146.727 205.608Z" fill="#0081B8"/>
<path d="M127.871 239.134C120.535 269.717 122.146 302.082 124.279 333.386C123.013 301.923 121.123 269.563 128.472 238.825C130.749 229.291 133.501 220.025 131.714 210.083C133.335 220.052 130.16 229.591 127.871 239.134Z" fill="white"/>
<path d="M27.9099 214.511C73.7361 227.595 98.3845 287.801 120.487 325.302C99.2106 287.257 74.0055 226.562 27.9099 214.511Z" fill="white"/>
<path d="M18.1101 287.338C51.7917 282.532 93.5773 318.479 121.193 334.351C94.4393 317.894 51.5942 281.644 18.1101 287.338Z" fill="white"/>
<path opacity="0.3" d="M13.745 310.137C35.9689 324.25 76.4614 334.695 98.856 337.397C113.115 339.12 124.021 339.365 127.792 337.964C81.0364 330.484 16.8833 312.526 8.90059 291.232C0.931396 269.979 22.0375 268.47 22.8681 268.42C22.8501 268.42 22.8321 268.42 22.8141 268.42L20.7938 268.424C18.9979 268.51 17.2738 268.819 15.6216 269.376C-8.47451 277.509 -1.12486 300.698 13.745 310.137Z" fill="white"/>
<path opacity="0.3" d="M0.515661 220.781C-3.67322 255.613 53.0225 277.083 63.0256 282.224C64.4039 282.936 65.7912 283.711 67.174 284.541V284.537C31.8312 261.212 12.1664 234.242 15.5426 211.034C18.0479 193.807 37.991 187.383 54.2392 188.027C29.0206 175.41 4.44414 188.122 0.515661 220.781Z" fill="white"/>
<path opacity="0.2" d="M318.27 333.214C318.27 336.556 305.475 339.262 289.693 339.262C273.911 339.262 261.115 336.556 261.115 333.214C261.115 329.872 273.911 327.166 289.693 327.166C305.479 327.166 318.27 329.877 318.27 333.214Z" fill="#303030"/>
<path d="M212.127 297.1H86.6345C80.7458 297.1 75.9719 292.279 75.9719 286.333V68.0349C75.9719 62.0888 80.7458 57.2683 86.6345 57.2683H212.127C218.016 57.2683 222.79 62.0888 222.79 68.0349V286.333C222.79 292.279 218.016 297.1 212.127 297.1Z" fill="#666666"/>
<path d="M207.284 277.786H92.2044C87.5193 277.786 83.7231 274.067 83.7231 269.477V76.8213C83.7231 72.2312 87.5193 68.5122 92.2044 68.5122H207.284C211.969 68.5122 215.765 72.2312 215.765 76.8213V269.477C215.765 274.067 211.969 277.786 207.284 277.786Z" fill="white"/>
<path d="M73.0446 42.4506L54.6441 51.6522C53.9708 51.9383 53.3965 52.4158 52.9926 53.0254C52.5888 53.635 52.3732 54.3497 52.3727 55.0808V63.6831C52.3509 71.5119 54.6332 79.1745 58.9355 85.7176C62.2477 90.7634 66.645 97.2152 73.9619 100.899H77.261C85.4027 98.4182 91.4803 91.8079 95.1983 86.1494C99.5007 79.6064 101.783 71.9438 101.761 64.1149V55.0808C101.761 54.3497 101.545 53.635 101.141 53.0254C100.737 52.4158 100.163 51.9383 99.4897 51.6522L78.5268 42.7283C77.605 42.3316 73.9796 42.032 73.0446 42.4506Z" fill="#12698F"/>
<path opacity="0.3" d="M72.9464 42.4506L54.546 51.6522C53.8726 51.9383 53.2983 52.4158 52.8945 53.0254C52.4906 53.635 52.2751 54.3497 52.2746 55.0808V63.6831C52.2528 71.5119 54.535 79.1745 58.8373 85.7176C62.1496 90.7634 66.5468 97.2152 73.8638 100.899H77.1628C85.3046 98.4182 91.3822 91.8079 95.1002 86.1494C99.4025 79.6064 101.685 71.9438 101.663 64.1149V55.0808C101.662 54.3497 101.447 53.635 101.043 53.0254C100.639 52.4158 100.065 51.9383 99.3916 51.6522L78.4286 42.7283C77.5068 42.3316 73.8814 42.032 72.9464 42.4506Z" fill="black"/>
<path d="M72.3118 42.7284L51.34 51.6523C50.6671 51.9386 50.0934 52.4162 49.6903 53.0259C49.2872 53.6355 49.0725 54.3502 49.073 55.0809V63.6832C49.0711 71.6492 51.4351 79.4366 55.8656 86.0593C60.2961 92.682 66.5938 97.8421 73.9613 100.886C82.103 98.4183 88.1894 91.808 91.8942 86.1363C96.1966 79.5932 98.4788 71.9307 98.457 64.1018V55.0809C98.4563 54.3505 98.2412 53.6363 97.8382 53.0269C97.4352 52.4174 96.8622 51.9395 96.19 51.6523L75.2271 42.7284C74.7659 42.5334 74.2702 42.4329 73.7694 42.4329C73.2686 42.4329 72.7729 42.5334 72.3118 42.7284Z" fill="#1996CC"/>
<path d="M98.39 61.7839C98.3954 61.8175 98.3954 61.8517 98.39 61.8853C98.39 61.9646 98.39 62.0616 98.39 62.1806C98.39 62.4626 98.4165 62.8416 98.4341 63.3219C98.4518 63.8023 98.4782 64.4193 98.4341 65.1244C98.4341 65.4769 98.4121 65.8515 98.3988 66.2525C98.3988 66.4508 98.3988 66.6536 98.3768 66.8651C98.3547 67.0766 98.3371 67.3058 98.3194 67.5129C98.2312 68.3943 98.1695 69.3638 97.9887 70.3906C97.9049 70.9018 97.8387 71.4394 97.7284 71.9815C97.6182 72.5235 97.4903 73.0832 97.3668 73.6561C96.7958 76.1321 95.9971 78.55 94.9807 80.879C93.931 83.1907 92.6748 85.4031 91.2274 87.4894C90.5306 88.4324 89.9043 89.3447 89.1986 90.1335C88.8634 90.5257 88.5547 90.9268 88.2239 91.2793L87.2712 92.2929C86.6802 92.9539 86.0716 93.4783 85.5644 93.9675C85.3042 94.2055 85.0704 94.4346 84.8411 94.6329L84.2192 95.175L83.3371 95.8977L83.1077 96.0828C83.0504 96.1225 83.0239 96.1401 83.0195 96.1357L83.0901 96.0608L83.3106 95.8625L84.1618 95.1089L84.7837 94.5668C85.0087 94.3685 85.2248 94.1262 85.4894 93.8926C85.9834 93.3946 86.5832 92.8658 87.1654 92.2003L88.1048 91.1824C88.4312 90.8254 88.7311 90.4244 89.0663 90.0277C89.7455 89.2433 90.3894 88.3311 91.0686 87.3836C92.4965 85.2914 93.7405 83.0797 94.7867 80.7733C95.8047 78.4566 96.615 76.0542 97.208 73.5944C97.3315 73.0259 97.455 72.4707 97.5741 71.933C97.6932 71.3954 97.7549 70.8577 97.8431 70.3465C98.0328 69.3285 98.1033 68.3634 98.2004 67.4821C98.2224 67.2661 98.2445 67.0414 98.2665 66.8431C98.2886 66.6447 98.2886 66.4288 98.2974 66.2305C98.315 65.8339 98.3327 65.4593 98.3503 65.1067C98.3988 64.406 98.3856 63.7847 98.3856 63.3087V61.8853C98.3816 61.8515 98.3831 61.8173 98.39 61.7839Z" fill="#263238"/>
<path d="M82.0661 73.343H79.83V61.1888C79.8503 60.4946 79.7309 59.8034 79.4791 59.1562C79.2272 58.5089 78.8479 57.9188 78.3636 57.4206C77.8794 56.9224 77.3 56.5264 76.6599 56.256C76.0197 55.9856 75.3317 55.8462 74.6367 55.8462C73.9417 55.8462 73.2537 55.9856 72.6136 56.256C71.9734 56.5264 71.394 56.9224 70.9098 57.4206C70.4255 57.9188 70.0463 58.5089 69.7944 59.1562C69.5425 59.8034 69.4231 60.4946 69.4434 61.1888V73.343H67.2073V61.1888C67.1831 60.1987 67.3575 59.2138 67.72 58.2921C68.0825 57.3703 68.6259 56.5303 69.3181 55.8215C70.0104 55.1128 70.8376 54.5495 71.751 54.165C72.6644 53.7804 73.6455 53.5823 74.6367 53.5823C75.6279 53.5823 76.609 53.7804 77.5224 54.165C78.4358 54.5495 79.263 55.1128 79.9553 55.8215C80.6476 56.5303 81.191 57.3703 81.5535 58.2921C81.916 59.2138 82.0903 60.1987 82.0661 61.1888V73.343Z" fill="#F5F5F5"/>
<path d="M82.0856 65.0935H67.187C65.7718 65.0935 64.6245 66.2398 64.6245 67.6539V78.2128C64.6245 79.6269 65.7718 80.7732 67.187 80.7732H82.0856C83.5008 80.7732 84.648 79.6269 84.648 78.2128V67.6539C84.648 66.2398 83.5008 65.0935 82.0856 65.0935Z" fill="white"/>
<path d="M82.0853 80.791C82.3111 80.768 82.535 80.7297 82.7556 80.6764C83.29 80.5224 83.7591 80.1977 84.0912 79.752C84.4233 79.3063 84.6002 78.7642 84.5948 78.2086C84.5948 77.693 84.5948 77.1333 84.5948 76.5296C84.5948 75.3265 84.5948 73.9559 84.5948 72.4444C84.5948 70.9328 84.5948 69.2714 84.5728 67.4954C84.5404 67.0509 84.3879 66.6235 84.1316 66.2588C83.8753 65.894 83.5247 65.6056 83.1173 65.4242C82.6833 65.246 82.2132 65.1735 81.7457 65.2126H80.2505H67.2088C66.6546 65.2143 66.1171 65.4021 65.6827 65.7459C65.2498 66.0814 64.9434 66.5536 64.8139 67.0856C64.7566 67.3519 64.7329 67.6243 64.7433 67.8964V70.3819C64.7433 72.5589 64.7433 74.661 64.7433 76.6662C64.7874 77.6621 64.5801 78.6889 65.0917 79.4734C65.3205 79.8564 65.6487 80.1705 66.0416 80.3823C66.4345 80.5941 66.8774 80.6957 67.3234 80.6764H72.2852L79.4654 80.7161H81.4193H81.9265C81.9837 80.7103 82.0413 80.7103 82.0985 80.7161C82.0413 80.7219 81.9837 80.7219 81.9265 80.7161H81.4193H79.4654L72.2852 80.7514H67.3234C66.9672 80.7691 66.611 80.7153 66.2759 80.5932C65.9408 80.471 65.6337 80.283 65.3726 80.0402C65.1115 79.7974 64.9017 79.5047 64.7558 79.1795C64.6098 78.8543 64.5306 78.5032 64.5228 78.1469C64.5228 77.6577 64.5228 77.1641 64.5228 76.6618C64.5228 74.6566 64.5228 72.5545 64.5228 70.3775V67.8964C64.5072 67.6006 64.5324 67.304 64.5978 67.0151C64.7368 66.43 65.0693 65.909 65.5416 65.5363C66.0138 65.1636 66.5981 64.9611 67.1999 64.9614H80.2417H81.728C82.2252 64.9235 82.7243 65.0051 83.1835 65.1994C83.6222 65.3951 83.9993 65.7065 84.2744 66.1001C84.5494 66.4937 84.712 66.9548 84.7448 67.4337C84.7448 69.2317 84.7448 70.8799 84.7448 72.4003C84.7448 73.9207 84.7448 75.2824 84.7448 76.4855C84.7448 77.0892 84.7448 77.6489 84.7448 78.1645C84.7457 78.6472 84.6113 79.1205 84.3566 79.5307C84.0116 80.1031 83.4532 80.5152 82.8042 80.6764C82.5736 80.7586 82.3299 80.7974 82.0853 80.791Z" fill="#263238"/>
<path d="M76.1755 73.3386C76.3773 73.1374 76.5374 72.8984 76.6464 72.6352C76.7554 72.372 76.8112 72.0898 76.8106 71.805C76.8132 71.3944 76.7009 70.9913 76.4864 70.6411C76.272 70.2908 75.9638 70.0075 75.5968 69.8229C75.2298 69.6383 74.8184 69.5599 74.4091 69.5964C73.9999 69.6329 73.6089 69.783 73.2805 70.0297C72.952 70.2763 72.699 70.6098 72.5501 70.9925C72.4012 71.3751 72.3622 71.7917 72.4376 72.1953C72.513 72.599 72.6997 72.9735 72.9767 73.2767C73.2538 73.5799 73.6101 73.7998 74.0055 73.9115L73.5336 76.0003H75.6286L75.1875 73.9115C75.5536 73.807 75.8863 73.6096 76.1534 73.3386" fill="#12698F"/>
<path d="M289.522 110.139C300.132 110.139 311.769 99.77 306.632 87.6747C301.5 75.5794 309.369 70.3969 310.396 64.5214C311.424 58.6459 310.396 50.3514 303.55 45.1689C296.704 39.9865 304.919 30.6545 291.572 25.1234C278.225 19.5922 267.274 26.1607 261.797 38.256C256.319 50.3514 250.159 55.5338 253.582 62.4467C257.005 69.3596 248.105 77.3054 252.555 83.1809C257.005 89.0564 245.368 95.6205 251.187 101.496C257.005 107.372 255.261 107.38 259.724 108.069L289.522 110.139Z" fill="#333333"/>
<path d="M272.374 335.298C264.146 337.205 258.555 336.957 256.889 332.962C255.224 328.967 260.098 325.065 266.909 322.174C273.72 319.282 278.59 321.026 280.256 325.021C281.921 329.016 279.578 333.629 272.374 335.298Z" fill="#0D5671"/>
<path d="M269.954 322.937L273.237 301.629C273.674 298.791 276.306 296.849 279.117 297.29C281.928 297.732 283.852 300.389 283.415 303.227C283.375 303.497 283.301 303.788 283.222 304.04L276.612 324.544C276.026 326.363 274.09 327.361 272.284 326.769C270.658 326.231 269.696 324.588 269.954 322.937Z" fill="#FCA98A"/>
<path d="M279.325 330.19C277.878 338.587 275.482 343.698 271.189 343.698C266.896 343.698 265.222 337.651 265.222 330.19C265.222 322.73 268.702 318.872 272.995 318.872C277.292 318.876 280.593 322.841 279.325 330.19Z" fill="#0D5671"/>
<path d="M266.418 323.97L257.102 304.565C255.861 301.982 256.932 298.87 259.489 297.616C262.047 296.363 265.129 297.444 266.37 300.027C266.488 300.274 266.593 300.552 266.668 300.804L272.797 321.463C273.339 323.299 272.311 325.228 270.493 325.78C268.858 326.274 267.14 325.475 266.418 323.97Z" fill="#FCA98A"/>
<path d="M283.016 244.229C283.016 244.229 298.151 206.398 298.969 195.941C300.787 186.172 298.077 171.657 298.077 171.657H240.581C238.185 184.446 229.971 229.715 229.63 238.01C229.289 246.304 242.294 277.408 249.822 293.304C257.35 309.2 263.855 319.913 263.855 319.913C263.855 319.913 270.356 319.913 271.729 315.42C271.733 315.402 271.737 315.38 271.742 315.362C273.04 316.174 276.385 317.874 279.598 316.342C283.703 314.382 288.494 273.258 287.471 261.507C286.439 249.756 283.016 244.229 283.016 244.229Z" fill="#005D99"/>
<path d="M304.926 126.729C303.269 112.788 295.374 98.6271 288.073 96.7554C283.894 93.0385 279.033 91.2154 273.953 92.5132C271.863 93.0473 269.712 94.5659 267.557 96.8613C264.947 98.6535 258.774 103.28 252.221 113.936C246.062 123.957 245.375 122.575 245.375 122.575C245.375 122.575 240.584 103.915 229.633 87.6707C229.633 87.6707 223.132 88.3637 221.418 92.1645C219.709 95.9652 222.105 134.326 226.551 144.695C230.555 154.023 237.052 159.152 243.299 155.806C242.114 161.284 241.187 166.643 240.584 171.649C240.584 171.649 252.934 175.437 261.804 176.143C274.81 177.18 298.425 173.38 298.425 173.38C298.425 173.38 299.496 166.065 300.384 156.535C308.502 151.44 306.981 144.007 304.926 126.729Z" fill="#FCAF17"/>
<path d="M288.075 49.1376C287.52 49.014 286.96 49.0229 286.414 49.1465C286.033 40.6886 283.139 34.2524 274.724 34.2524C268.647 34.2524 259.834 42.9531 258.461 55.5693C257.088 68.1855 258.273 79.7467 269.758 79.941C277.063 80.0646 283.262 72.9354 285.439 62.3321C288.027 62.7118 290.68 60.3148 291.458 56.8098C292.263 53.1768 290.75 49.7424 288.075 49.1376Z" fill="#FCA98A"/>
<path d="M276.509 74.2685L279.928 95.5545C280.383 98.3885 278.476 101.059 275.67 101.518C272.863 101.977 270.218 100.053 269.764 97.2187C269.72 96.9494 269.698 96.6536 269.698 96.3888L269.694 74.8247C269.694 72.9088 271.228 71.3594 273.126 71.355C274.826 71.355 276.243 72.6175 276.509 74.2685Z" fill="#FCA98A"/>
<path d="M276.54 123.369C276.951 125.329 277.371 127.289 277.917 129.218C278.438 131.152 279.05 133.063 279.793 134.926C280.164 135.858 280.593 136.763 281.065 137.645C281.55 138.511 282.079 139.394 282.849 140.034C282.464 139.716 282.175 139.301 281.896 138.895L281.502 138.259L281.144 137.601C280.698 136.71 280.291 135.8 279.95 134.86C279.242 132.997 278.656 131.086 278.171 129.148C277.668 127.214 277.24 125.263 276.846 123.303C276.479 121.339 276.081 119.374 275.871 117.397C275.653 115.419 275.618 113.42 275.841 111.442C275.941 110.453 276.138 109.478 276.378 108.515C276.636 107.557 276.96 106.617 277.353 105.708C278.166 103.902 279.281 102.225 280.693 100.83C281.388 100.124 282.153 99.4878 282.975 98.9316C283.793 98.3754 284.663 97.881 285.585 97.519C284.645 97.8457 283.762 98.3136 282.923 98.8522C282.084 99.3907 281.297 100.013 280.575 100.706C279.124 102.092 277.97 103.774 277.113 105.597C276.274 107.429 275.753 109.402 275.53 111.407C275.294 113.406 275.321 115.432 275.53 117.432C275.753 119.445 276.16 121.405 276.54 123.369Z" fill="#BF7C34"/>
<path d="M283.443 140.237C282.739 140.391 282.053 140.616 281.379 140.872C280.037 141.406 278.761 142.091 277.545 142.872C276.334 143.662 275.189 144.541 274.061 145.441C272.929 146.337 271.823 147.255 270.712 148.178C268.518 150.045 266.345 151.939 264.203 153.864C262.061 155.793 259.941 157.739 257.855 159.73L264.374 154.062C266.551 152.177 268.719 150.284 270.927 148.438C272.024 147.507 273.126 146.584 274.245 145.684C275.36 144.775 276.501 143.905 277.677 143.093C278.861 142.294 280.112 141.587 281.427 141.027C282.739 140.479 284.133 140.029 285.572 140.034C284.868 139.976 284.147 140.086 283.443 140.237Z" fill="#BF7C34"/>
<path d="M257.87 169.406C259.728 169.181 261.581 168.943 263.431 168.678C265.28 168.422 267.129 168.144 268.974 167.844C272.664 167.239 276.34 166.577 279.977 165.72C281.796 165.301 283.606 164.837 285.389 164.29C287.173 163.743 288.93 163.098 290.605 162.286C291.435 161.875 292.231 161.381 293.04 160.904L295.457 159.47L300.31 156.627L295.545 159.611L293.154 161.09C292.358 161.58 291.567 162.087 290.727 162.524C289.049 163.385 287.274 164.021 285.486 164.59C283.693 165.151 281.883 165.628 280.056 166.056C276.401 166.89 272.716 167.557 269.018 168.108C265.31 168.647 261.595 169.102 257.87 169.406Z" fill="#BF7C34"/>
<path d="M243.151 156.622C244.2 151.33 245.415 146.068 246.784 140.846C248.156 135.623 249.686 130.445 251.457 125.342C251.885 124.062 252.397 122.813 252.865 121.546C253.092 120.91 253.372 120.297 253.625 119.67C253.888 119.048 254.137 118.421 254.412 117.803C255.536 115.344 256.733 112.925 258.045 110.572C259.352 108.215 260.729 105.893 262.242 103.664C263.002 102.551 263.798 101.465 264.651 100.423C264.86 100.163 265.075 99.9025 265.302 99.6509C265.52 99.3949 265.743 99.1432 265.98 98.9004C266.443 98.4149 266.915 97.9337 267.453 97.5276C266.928 97.9425 266.465 98.4325 266.01 98.9313C265.783 99.1786 265.564 99.4346 265.35 99.695C265.131 99.9511 264.922 100.212 264.716 100.481C263.885 101.536 263.112 102.639 262.377 103.765C260.895 106.008 259.549 108.338 258.272 110.704C257 113.075 255.798 115.485 254.692 117.935C254.425 118.553 254.176 119.176 253.918 119.798C253.669 120.42 253.389 121.034 253.166 121.67C252.703 122.932 252.2 124.181 251.776 125.462C249.979 130.543 248.458 135.716 247.033 140.916C246.325 143.516 245.647 146.13 245.004 148.747C244.357 151.361 243.728 153.987 243.151 156.622Z" fill="#BF7C34"/>
<path d="M229.631 93.2059C231.065 87.4187 229.29 77.9985 229.631 73.5091C229.972 69.0153 222.103 62.1068 220.735 62.4511C219.367 62.7954 216.285 65.2145 216.285 66.9449C216.285 68.6709 220.735 77.3142 220.735 77.3142C220.735 77.3142 217.312 73.8578 215.944 73.8578C214.575 73.8578 217.998 81.4593 218.68 82.841C219.367 84.2227 222.444 87.3348 222.785 89.4051C223.126 91.4799 222.632 95.9693 222.632 95.9693C222.632 95.9693 228.263 98.7371 229.631 93.2059Z" fill="#FCA98A"/>
<path d="M271.986 311.637L271.82 314.978C271.903 313.866 271.956 312.754 271.986 311.637Z" fill="#0C7077"/>
<path d="M295.581 203.225C295.563 203.229 295.55 203.238 295.537 203.247C295.511 203.264 295.489 203.286 295.462 203.304C295.366 203.384 295.279 203.472 295.187 203.556L294.658 204.081L293.626 205.158L291.585 207.339C290.907 208.067 290.247 208.813 289.565 209.542C288.874 210.252 288.197 210.981 287.458 211.647C284.568 214.375 281.517 216.927 278.426 219.425C275.348 221.941 272.21 224.378 269.062 226.811C267.488 228.024 265.91 229.234 264.323 230.43L259.606 234.001C259.597 233.971 259.589 233.944 259.575 233.913L259.449 233.587C259.396 233.481 259.335 233.383 259.278 233.282C259.033 232.885 258.723 232.531 258.373 232.231C258.032 231.918 257.652 231.657 257.263 231.41C256.48 230.929 255.645 230.532 254.78 230.232C255.641 230.549 256.467 230.956 257.241 231.45C257.626 231.702 257.997 231.966 258.334 232.284C258.675 232.589 258.977 232.942 259.208 233.33C259.261 233.432 259.322 233.529 259.37 233.631L259.488 233.949C259.567 234.16 259.632 234.39 259.707 234.606C259.868 235.039 260.03 235.476 260.205 235.904L261.228 238.478C261.91 240.195 262.57 241.921 263.186 243.66C263.799 245.404 264.367 247.161 264.883 248.931C265.923 252.476 266.719 256.091 267.23 259.746C267.366 260.66 267.475 261.578 267.58 262.496L267.904 265.251L268.529 270.764C269.381 278.114 270.199 285.468 270.907 292.832C271.475 299.087 272.144 305.351 271.982 311.632L272.092 309.434C272.192 307.58 272.078 305.73 271.995 303.881C271.777 300.186 271.466 296.495 271.13 292.809C270.457 285.437 269.683 278.079 268.861 270.724L268.205 265.211L267.869 262.456C267.759 261.538 267.646 260.62 267.506 259.702C266.972 256.033 266.155 252.409 265.093 248.865C264.039 245.315 262.771 241.833 261.377 238.411L260.314 235.851C260.135 235.423 259.969 234.995 259.798 234.566C259.733 234.377 259.672 234.191 259.602 234.001C262.85 231.737 266.046 229.397 269.215 227.022C272.398 224.639 275.532 222.189 278.632 219.695C281.709 217.17 284.769 214.618 287.628 211.841C288.358 211.162 289.027 210.416 289.709 209.692C290.378 208.954 291.03 208.2 291.694 207.458L293.674 205.224L294.68 204.121L295.191 203.578C295.279 203.489 295.366 203.401 295.458 203.317C295.48 203.295 295.506 203.278 295.528 203.256C295.541 203.247 295.554 203.238 295.567 203.233C295.581 203.229 295.572 203.251 295.563 203.264C295.537 203.322 295.497 203.37 295.462 203.423C295.502 203.375 295.537 203.322 295.567 203.269C295.585 203.26 295.602 203.229 295.581 203.225Z" fill="#0C7077"/>
<path d="M134.874 136.473C134.896 140.304 133.347 144.109 130.65 146.868C129.305 148.247 127.696 149.384 125.912 150.16C124.133 150.941 122.188 151.371 120.226 151.414C118.264 151.453 116.289 151.111 114.445 150.39C112.604 149.675 110.89 148.594 109.459 147.21C108.037 145.822 106.875 144.152 106.092 142.308C105.318 140.465 104.913 138.469 104.9 136.469C104.909 134.469 105.313 132.474 106.092 130.63C106.866 128.786 108.032 127.116 109.455 125.728C110.886 124.339 112.6 123.264 114.44 122.543C116.285 121.828 118.264 121.485 120.222 121.524C122.184 121.567 124.129 121.997 125.908 122.778C127.692 123.554 129.301 124.695 130.645 126.075C133.351 128.838 134.9 132.643 134.874 136.473ZM134.874 136.473C134.861 134.56 134.478 132.656 133.734 130.895C132.99 129.133 131.877 127.541 130.515 126.214C129.149 124.89 127.509 123.862 125.747 123.181C123.985 122.496 122.097 122.175 120.226 122.214C118.351 122.261 116.498 122.669 114.801 123.415C113.1 124.157 111.569 125.251 110.286 126.561C107.715 129.194 106.24 132.821 106.262 136.473C106.24 140.126 107.715 143.753 110.286 146.386C111.569 147.705 113.1 148.79 114.801 149.536C116.498 150.286 118.351 150.694 120.226 150.737C122.101 150.777 123.989 150.451 125.747 149.766C127.504 149.08 129.145 148.056 130.515 146.729C131.877 145.401 132.99 143.809 133.73 142.048C134.478 140.291 134.865 138.382 134.874 136.473Z" fill="#333333"/>
<path d="M112.144 133.167L112.54 132.881C113.216 133.481 113.851 134.106 114.471 134.742L114.472 134.742C115.088 135.378 115.687 136.028 116.271 136.685C116.857 137.343 117.425 138.013 117.986 138.686L117.987 138.688C118.147 138.882 118.306 139.077 118.464 139.272C118.941 138.632 119.426 137.996 119.926 137.368C120.789 136.268 121.679 135.189 122.6 134.132C123.516 133.074 124.464 132.038 125.451 131.028L125.451 131.028C126.437 130.023 127.457 129.035 128.567 128.112L128.953 128.411C128.344 129.714 127.647 130.95 126.928 132.159L126.927 132.16C126.202 133.371 125.442 134.546 124.653 135.703C123.863 136.86 123.047 137.996 122.201 139.11C121.363 140.229 120.486 141.321 119.607 142.401L119.606 142.402L118.61 143.621L118.396 143.883L118.208 143.601L117.378 142.352L112.144 133.167ZM112.144 133.167C112.5 133.994 112.894 134.798 113.305 135.575C113.716 136.359 114.144 137.13 114.585 137.892C115.026 138.654 115.48 139.402 115.947 140.146C116.414 140.891 116.894 141.626 117.377 142.351L112.144 133.167Z" fill="#4BB543" stroke="#4BB543" stroke-width="0.5"/>
<path d="M191.072 129.51H144.07C143.696 129.51 143.387 129.207 143.387 128.829C143.387 128.456 143.692 128.148 144.07 128.148H191.072C191.446 128.148 191.755 128.452 191.755 128.829C191.75 129.207 191.446 129.51 191.072 129.51Z" fill="#333333"/>
<path d="M191.24 136.474H144.239C143.865 136.474 143.556 136.171 143.556 135.793C143.556 135.42 143.86 135.112 144.239 135.112H191.24C191.614 135.112 191.923 135.416 191.923 135.793C191.919 136.171 191.614 136.474 191.24 136.474Z" fill="#4BB543"/>
<path d="M191.414 143.437H144.413C144.038 143.437 143.729 143.133 143.729 142.756C143.729 142.383 144.034 142.075 144.413 142.075H191.414C191.788 142.075 192.097 142.378 192.097 142.756C192.097 143.129 191.792 143.437 191.414 143.437Z" fill="#333333"/>
<path d="M134.874 186.825C134.896 190.656 133.347 194.46 130.65 197.22C129.305 198.599 127.696 199.736 125.912 200.512C124.133 201.293 122.188 201.723 120.226 201.766C118.264 201.805 116.289 201.462 114.445 200.742C112.604 200.026 110.89 198.946 109.459 197.562C108.037 196.174 106.875 194.504 106.092 192.66C105.318 190.816 104.913 188.821 104.9 186.821C104.909 184.821 105.313 182.825 106.092 180.982C106.866 179.138 108.032 177.468 109.455 176.08C110.886 174.691 112.6 173.615 114.44 172.895C116.285 172.179 118.264 171.837 120.222 171.876C122.184 171.919 124.129 172.349 125.908 173.13C127.692 173.906 129.301 175.047 130.645 176.427C133.351 179.19 134.9 182.995 134.874 186.825ZM134.874 186.825C134.861 184.912 134.478 183.008 133.734 181.246C132.99 179.485 131.877 177.893 130.515 176.565C129.149 175.242 127.509 174.214 125.747 173.533C123.985 172.848 122.097 172.527 120.226 172.566C118.351 172.613 116.498 173.021 114.801 173.767C113.1 174.509 111.569 175.602 110.286 176.912C107.715 179.546 106.24 183.172 106.262 186.825C106.24 190.478 107.715 194.105 110.286 196.738C111.569 198.057 113.1 199.141 114.801 199.888C116.498 200.638 118.351 201.046 120.226 201.089C122.101 201.128 123.989 200.803 125.747 200.118C127.504 199.432 129.145 198.408 130.515 197.081C131.877 195.753 132.99 194.161 133.73 192.4C134.478 190.643 134.865 188.738 134.874 186.825Z" fill="#333333"/>
<path d="M111.822 184.039L112.217 183.753C112.894 184.353 113.529 184.978 114.149 185.613L114.15 185.614C114.766 186.25 115.364 186.899 115.949 187.557C116.535 188.215 117.102 188.885 117.664 189.558L117.665 189.559C117.825 189.754 117.984 189.948 118.142 190.144C118.619 189.503 119.104 188.868 119.603 188.24C120.467 187.14 121.357 186.061 122.278 185.004C123.194 183.946 124.141 182.91 125.128 181.9L125.129 181.899C126.115 180.894 127.135 179.907 128.245 178.984L128.631 179.282C128.021 180.586 127.325 181.822 126.605 183.031L126.605 183.031C125.88 184.242 125.12 185.418 124.33 186.575C123.541 187.732 122.725 188.868 121.879 189.982C121.04 191.101 120.163 192.192 119.284 193.273L119.284 193.273L118.288 194.492L118.074 194.755L117.886 194.473L117.055 193.223L111.822 184.039ZM111.822 184.039C112.178 184.866 112.572 185.666 112.983 186.446C113.394 187.231 113.822 188.002 114.263 188.763C114.704 189.525 115.158 190.274 115.625 191.018C116.092 191.762 116.571 192.498 117.055 193.223L111.822 184.039Z" fill="#4BB543" stroke="#4BB543" stroke-width="0.5"/>
<path d="M191.072 179.862H144.07C143.696 179.862 143.387 179.558 143.387 179.181C143.387 178.808 143.692 178.5 144.07 178.5H191.072C191.446 178.5 191.755 178.803 191.755 179.181C191.75 179.558 191.446 179.862 191.072 179.862Z" fill="#333333"/>
<path d="M191.24 186.824H144.239C143.865 186.824 143.556 186.521 143.556 186.143C143.556 185.766 143.86 185.462 144.239 185.462H191.24C191.614 185.462 191.923 185.766 191.923 186.143C191.923 186.521 191.614 186.824 191.24 186.824Z" fill="#333333"/>
<path d="M191.414 193.788H144.413C144.038 193.788 143.729 193.485 143.729 193.107C143.729 192.73 144.034 192.426 144.413 192.426H191.414C191.788 192.426 192.097 192.73 192.097 193.107C192.097 193.485 191.792 193.788 191.414 193.788Z" fill="#333333"/>
<path d="M134.874 237.177C134.896 241.008 133.347 244.812 130.65 247.571C129.305 248.951 127.696 250.088 125.912 250.864C124.133 251.645 122.188 252.074 120.226 252.118C118.264 252.157 116.289 251.814 114.445 251.094C112.604 250.378 110.89 249.298 109.459 247.914C108.037 246.526 106.875 244.856 106.092 243.012C105.318 241.168 104.913 239.173 104.9 237.173C104.909 235.173 105.313 233.177 106.092 231.334C106.866 229.49 108.032 227.82 109.455 226.431C110.886 225.043 112.6 223.967 114.44 223.247C116.285 222.527 118.264 222.189 120.222 222.228C122.184 222.271 124.129 222.701 125.908 223.481C127.692 224.258 129.301 225.399 130.645 226.778C133.351 229.542 134.9 233.351 134.874 237.177ZM134.874 237.177C134.861 235.264 134.478 233.359 133.734 231.598C132.99 229.837 131.877 228.245 130.515 226.917C129.149 225.594 127.509 224.566 125.747 223.885C123.985 223.199 122.097 222.878 120.226 222.917C118.351 222.965 116.498 223.373 114.801 224.119C113.1 224.861 111.569 225.954 110.286 227.264C107.715 229.898 106.24 233.524 106.262 237.177C106.24 240.83 107.715 244.457 110.286 247.09C111.569 248.409 113.1 249.493 114.801 250.239C116.498 250.99 118.351 251.398 120.226 251.441C122.101 251.48 123.989 251.155 125.747 250.469C127.504 249.784 129.145 248.76 130.515 247.433C131.877 246.105 132.99 244.513 133.73 242.752C134.478 240.999 134.865 239.09 134.874 237.177Z" fill="#333333"/>
<path d="M111.822 234.391L112.217 234.105C112.894 234.705 113.529 235.33 114.149 235.965L114.15 235.966C114.766 236.602 115.364 237.251 115.949 237.909C116.535 238.567 117.102 239.237 117.664 239.91L117.665 239.912C117.825 240.106 117.984 240.301 118.142 240.496C118.619 239.855 119.104 239.22 119.603 238.592C120.467 237.492 121.357 236.413 122.278 235.356C123.194 234.298 124.141 233.262 125.128 232.252L125.129 232.251C126.115 231.246 127.135 230.259 128.245 229.336L128.631 229.634C128.021 230.938 127.325 232.174 126.605 233.383L126.605 233.383C125.88 234.594 125.12 235.77 124.33 236.927C123.541 238.084 122.725 239.22 121.879 240.334C121.04 241.453 120.163 242.544 119.284 243.625L119.284 243.625L118.288 244.844L118.074 245.107L117.886 244.825L117.055 243.575C117.055 243.575 117.055 243.575 117.055 243.575L117.055 243.575L117.263 243.437C116.78 242.712 116.302 241.979 115.836 241.237C115.371 240.496 114.918 239.749 114.479 238.99C114.04 238.231 113.613 237.463 113.204 236.682L111.822 234.391ZM111.822 234.391C112.177 235.218 112.572 236.022 112.983 236.799L111.822 234.391Z" fill="#4BB543" stroke="#4BB543" stroke-width="0.5"/>
<path d="M191.072 230.214H144.07C143.696 230.214 143.387 229.911 143.387 229.533C143.387 229.16 143.692 228.852 144.07 228.852H191.072C191.446 228.852 191.755 229.156 191.755 229.533C191.75 229.911 191.446 230.214 191.072 230.214Z" fill="#333333"/>
<path d="M191.24 237.178H144.239C143.865 237.178 143.556 236.874 143.556 236.497C143.556 236.124 143.86 235.816 144.239 235.816H191.24C191.614 235.816 191.923 236.12 191.923 236.497C191.919 236.874 191.614 237.178 191.24 237.178Z" fill="#4BB543"/>
<path d="M191.414 244.14H144.413C144.038 244.14 143.729 243.836 143.729 243.459C143.729 243.086 144.034 242.778 144.413 242.778H191.414C191.788 242.778 192.097 243.082 192.097 243.459C192.097 243.836 191.792 244.14 191.414 244.14Z" fill="#333333"/>
<path opacity="0.3" d="M303.554 45.1686C296.708 39.9862 304.922 30.6542 291.576 25.123C289.582 24.2976 287.641 23.7458 285.766 23.4368C287.799 26.8314 292.533 26.3591 295.34 32.0315C298.422 38.2513 298.19 39.4785 297.394 52.0771C296.367 68.3175 305.609 57.9526 299.449 77.6494C293.762 95.8409 306.16 94.5873 298.382 106.811C298.531 107.067 298.675 107.327 298.82 107.592C305.583 103.791 310.234 96.1588 306.632 87.67C301.499 75.5747 309.368 70.3922 310.396 64.5167C311.427 58.65 310.4 50.3555 303.554 45.1686Z" fill="#303030"/>
<path opacity="0.3" d="M304.923 126.728C303.266 112.788 295.37 98.6266 288.07 96.7549C285.416 94.3932 282.483 92.8041 279.396 92.2876L279.663 93.943C282.732 95.8985 280.83 100.057 279.737 101.584C278.566 103.226 282.675 101.152 285.071 100.114C287.467 99.0769 291.917 98.0395 297.736 110.135C302.933 120.941 304.726 127.315 306.081 136.568C305.779 133.699 305.364 130.441 304.923 126.728Z" fill="#303030"/>
<path opacity="0.3" d="M279.355 316.439C279.438 316.404 279.517 316.377 279.6 316.338C283.705 314.378 288.496 273.254 287.473 261.503C286.446 249.752 283.023 244.225 283.023 244.225C283.023 244.225 295.561 212.883 298.429 199.371C288.842 223.839 284.05 239.387 279.259 244.225C274.468 249.063 280.286 245.606 283.364 255.976C286.446 266.345 282.337 300.556 280.627 309.195C280.002 312.343 279.609 314.704 279.355 316.439Z" fill="#303030"/>
<path opacity="0.3" d="M254.612 230.06C254.612 230.06 258.376 231.097 259.744 233.86C261.113 236.624 267.959 252.869 268.663 269.003C269.275 282.983 273.091 304.358 271.723 315.071C271.723 315.071 266.835 274.155 264.536 263.234C261.113 246.993 256.662 232.474 253.585 230.055C250.503 227.636 250.503 227.636 250.503 227.636L254.612 230.06Z" fill="#303030"/>
<path opacity="0.3" d="M300.352 156.821L300.134 156.45L298.831 157.488C297.738 166.126 294.376 172.832 289.213 174.664C284.05 176.496 289.528 177.877 292.606 180.297C295.688 182.716 295.688 196.193 289.869 204.831C284.05 213.47 259.753 233.86 259.753 233.86C259.753 233.86 283.027 216.927 287.819 211.744C292.61 206.562 297.06 201.724 298.429 199.305C298.442 199.283 298.451 199.256 298.464 199.23C298.73 197.958 298.91 196.846 298.98 195.941C300.418 188.22 299.023 177.533 298.376 173.397C298.407 173.392 298.429 173.388 298.429 173.388C298.429 173.388 299.469 166.21 300.352 156.821Z" fill="#303030"/>
<g opacity="0.3">
<path d="M258.465 55.5646C257.097 68.1543 258.273 79.689 269.687 79.9318V88.2705C269.971 81.362 274.313 80.6293 272.07 78.6869C269.674 76.6122 263.173 82.4877 260.778 68.3176C258.382 54.152 265.224 41.368 268.664 36.5564C263.952 39.9466 259.418 46.8153 258.465 55.5646Z" fill="white"/>
<path d="M269.689 90.147C269.693 90.0234 269.693 89.891 269.689 89.7585V90.147Z" fill="white"/>
</g>
<path opacity="0.3" d="M251.191 101.5C255.012 105.358 255.572 106.687 256.774 107.336C257.246 106.731 257.71 106.153 258.164 105.606C253.146 99.0546 250.951 100.379 255.301 89.4049C255.987 87.6789 259.109 82.0373 259.065 80.0729C258.925 73.8664 253.124 70.5468 255.983 65.5586C259.747 58.9944 253.928 62.4464 254.955 55.8823C255.983 49.3182 259.747 43.0939 264.197 35.8367C268.639 28.5884 272.272 25.463 276.779 23.9136C270.278 25.8029 265.067 31.0472 261.802 38.2558C256.324 50.3511 250.164 55.5336 253.587 62.4464C257.01 69.3593 248.109 77.3051 252.56 83.1806C257.01 89.0606 245.373 95.6247 251.191 101.5Z" fill="white"/>
<path opacity="0.3" d="M256.796 332.688C257.238 331.51 258.816 327.749 261.12 327.166C262.423 326.839 263.428 325.153 264.123 323.476C258.982 326.111 255.651 329.36 256.796 332.688Z" fill="white"/>
<path d="M254.795 177.184H244.841C244.565 177.184 244.343 176.959 244.343 176.681V156.605C244.343 156.326 244.565 156.101 244.841 156.101H254.795C255.071 156.101 255.293 156.326 255.293 156.605V176.677C255.298 176.959 255.071 177.184 254.795 177.184Z" fill="#333333"/>
<path d="M253.584 158.869C253.584 159.633 252.972 160.251 252.216 160.251C251.46 160.251 250.848 159.633 250.848 158.869C250.848 158.105 251.46 157.487 252.216 157.487C252.972 157.487 253.584 158.105 253.584 158.869Z" fill="#1B1C1C"/>
<path d="M253.133 158.868C253.133 159.376 252.726 159.791 252.219 159.791C251.712 159.791 251.306 159.38 251.306 158.868C251.306 158.361 251.712 157.946 252.219 157.946C252.726 157.946 253.133 158.356 253.133 158.868Z" fill="#A2CBCC"/>
<path d="M244.346 160.595C243.262 161.69 241.951 164.396 242.978 165.434C244.005 166.471 241.269 168.89 242.637 170.965C244.005 173.04 242.296 174.077 243.323 175.459C244.351 176.84 252.22 176.84 254.274 174.077C256.329 171.314 258.038 168.546 259.752 167.857C261.461 167.164 262.489 161.982 260.438 160.6C258.384 159.218 255.306 158.525 255.306 158.525V161.637C255.306 161.637 252.569 164.401 249.828 163.712C247.087 163.015 244.692 160.251 244.346 160.595Z" fill="#FCA98A"/>
<path opacity="0.3" d="M267.924 325.524C267.286 325.189 266.753 324.65 266.425 323.966L266.351 323.811C265.642 325.511 265.227 327.634 265.227 330.186C265.227 337.646 266.901 343.694 271.194 343.694C272.641 343.694 273.874 343.111 274.928 342.016C267.168 341.742 273.481 329.285 267.924 325.524Z" fill="white"/>
<path d="M266.252 324.059C266.152 324.571 266.056 325.083 265.981 325.595C265.898 326.107 265.824 326.624 265.763 327.136C265.64 328.164 265.544 329.197 265.496 330.235C265.435 331.267 265.435 332.305 265.466 333.342L265.496 334.119L265.562 334.896C265.579 335.417 265.675 335.929 265.715 336.45C265.466 335.439 265.278 334.402 265.203 333.36C265.173 333.099 265.155 332.839 265.151 332.574C265.142 332.314 265.125 332.049 265.125 331.788C265.129 331.263 265.129 330.742 265.16 330.217C265.216 329.171 265.321 328.129 265.509 327.096C265.684 326.067 265.916 325.048 266.252 324.059Z" fill="#333333"/>
<path d="M278.788 322.814C279.138 323.494 279.344 324.244 279.492 324.994C279.645 325.749 279.706 326.517 279.72 327.285C279.715 328.054 279.676 328.822 279.549 329.581C279.501 329.961 279.405 330.331 279.335 330.707C279.239 331.077 279.138 331.444 279.024 331.81C279.121 331.051 279.23 330.305 279.287 329.55C279.352 328.795 279.379 328.045 279.379 327.29C279.37 326.539 279.322 325.785 279.234 325.039C279.191 324.663 279.134 324.293 279.055 323.922C278.989 323.547 278.902 323.18 278.788 322.814Z" fill="#333333"/>
<path d="M245.543 122.406C245.67 122.768 245.739 123.144 245.792 123.519C245.844 123.894 245.862 124.274 245.866 124.653C245.862 125.413 245.779 126.176 245.543 126.9C245.521 126.516 245.525 126.145 245.525 125.77V124.653C245.53 123.912 245.517 123.17 245.543 122.406Z" fill="#BF7C34"/>
<g opacity="0.3">
<path d="M226.544 144.699C226.225 143.9 225.928 143.052 225.652 142.169C225.941 143.132 226.238 143.984 226.544 144.699Z" fill="white"/>
<path d="M220.731 62.4506C219.363 62.7949 216.281 65.214 216.281 66.9444C216.281 67.5757 216.875 69.1339 217.631 70.8555C215.218 65.0904 219.017 64.8697 223.721 64.1678C222.366 63.0289 221.186 62.3358 220.731 62.4506Z" fill="white"/>
<path d="M230.31 94.936C229.624 94.936 228.942 96.662 224.492 97.6993C220.129 98.7146 221.86 91.5766 221.926 91.3074C221.729 91.5766 221.55 91.8592 221.41 92.1726C220.072 95.1434 221.244 119.237 223.945 134.564C221.62 119.647 223.534 100.811 226.542 99.4298C230.31 97.6993 230.992 94.936 230.31 94.936Z" fill="white"/>
<path d="M219.676 84.3153C218.885 82.4922 218.006 80.2762 217.302 77.9984C215.593 72.4672 220.039 78.6914 220.725 77.3053C220.725 77.3053 217.302 73.8489 215.934 73.8489C214.566 73.8489 217.989 81.4504 218.671 82.8321C218.863 83.2205 219.234 83.7326 219.676 84.3153Z" fill="white"/>
<path d="M218.441 72.6477C219.573 75.0712 220.723 77.3093 220.723 77.3093C221.327 76.0909 220.338 76.4794 218.441 72.6477Z" fill="white"/>
</g>
<path opacity="0.3" d="M244.032 152.34C244.032 152.34 238.523 155.413 233.391 152.649C229.159 150.372 225.391 139.632 224.198 135.937C224.893 139.61 225.679 142.686 226.545 144.704C230.549 154.031 237.046 159.161 243.293 155.815C243.087 156.759 242.895 157.7 242.707 158.635L244.032 152.34Z" fill="#303030"/>
<path d="M158.463 287.01C158.486 288.37 158.105 289.706 157.366 290.848C156.628 291.99 155.566 292.887 154.317 293.423C153.067 293.96 151.686 294.113 150.349 293.862C149.012 293.611 147.781 292.968 146.811 292.015C145.841 291.062 145.176 289.841 144.902 288.509C144.628 287.177 144.757 285.793 145.271 284.535C145.786 283.276 146.664 282.199 147.793 281.441C148.922 280.683 150.252 280.278 151.612 280.277C153.413 280.262 155.146 280.963 156.431 282.226C157.716 283.488 158.446 285.209 158.463 287.01Z" fill="#333333"/>
<path d="M170.835 65.6595H130.155C129.776 65.6525 129.402 65.571 129.054 65.4196C128.707 65.2682 128.392 65.0498 128.129 64.7771C127.866 64.5043 127.66 64.1824 127.521 63.8298C127.383 63.4773 127.315 63.1009 127.322 62.7222C127.31 61.9586 127.601 61.2214 128.132 60.6722C128.663 60.123 129.39 59.8066 130.155 59.7925H170.835C171.214 59.7985 171.588 59.879 171.936 60.0295C172.284 60.18 172.598 60.3975 172.862 60.6695C173.126 60.9416 173.333 61.2629 173.473 61.6151C173.612 61.9673 173.681 62.3435 173.675 62.7222C173.687 63.4877 173.395 64.2269 172.863 64.7775C172.33 65.3282 171.601 65.6454 170.835 65.6595Z" fill="#333333"/>
<rect x="122.339" y="83.4602" width="56.0554" height="6.22838" rx="3.11419" fill="#0081B8"/>
<rect x="109.882" y="94.6714" width="80.9689" height="6.22838" rx="3.11419" fill="#CCCCCC"/>
</svg>
