<svg width="360" height="360" viewBox="0 0 360 360" fill="none" xmlns="http://www.w3.org/2000/svg">
<path d="M136.537 341.863C8.73956 322.971 -17.6895 258.815 42.1302 195.321C78.9897 156.194 0.889142 157.72 42.1302 72.2553C77.4859 -1.01538 208.003 -20.9335 265.925 105.336C293.094 164.558 308.146 158.166 340.773 197.457C384.781 250.455 347.917 306.811 283.98 338.823C220.043 370.836 217.025 353.757 136.537 341.863Z" fill="#E5F5F4"/>
<path d="M170.384 360C264.484 360 340.768 350.525 340.768 338.837C340.768 327.149 264.484 317.674 170.384 317.674C76.2834 317.674 0 327.149 0 338.837C0 350.525 76.2834 360 170.384 360Z" fill="#CCCCCC"/>
<path opacity="0.3" d="M247.304 334.193C276.905 334.193 300.902 331.248 300.902 327.614C300.902 323.981 276.905 321.036 247.304 321.036C217.702 321.036 193.706 323.981 193.706 327.614C193.706 331.248 217.702 334.193 247.304 334.193Z" fill="#303030"/>
<path opacity="0.2" d="M180.11 333.412C180.482 325.661 146.465 317.903 104.129 316.083C61.7942 314.264 27.1729 319.072 26.8004 326.823C26.4279 334.574 60.4454 342.332 102.781 344.151C145.116 345.971 179.737 341.163 180.11 333.412Z" fill="#303030"/>
<g opacity="0.5">
<path d="M182.713 160.165C180.263 158.865 178.884 155.721 179.321 152.532C179.504 151.114 179.888 148.661 180.825 148.193C181.848 147.675 182.478 148.729 183.563 149.824C185.682 151.946 187.364 154.486 186.835 157.293C186.311 160.106 185.163 161.469 182.713 160.165Z" fill="#0081B8"/>
<path d="M167.695 103.073C168.718 99.9699 171.072 98.6478 173.46 99.5564C174.527 99.9653 176.381 100.66 176.77 101.928C177.203 103.318 176.405 104.068 175.598 105.44C174.805 106.767 173.941 107.939 172.98 108.648C172.028 109.356 170.996 109.606 169.9 109.07C167.709 107.998 166.681 106.19 167.695 103.073Z" fill="#0081B8"/>
<path d="M166.348 42.9009C166.266 41.079 166.713 39.5797 167.52 38.6301C168.313 37.6896 169.456 37.2807 170.73 37.4988C171.296 37.5942 172.084 37.7033 172.815 37.9304C173.545 38.1576 174.218 38.4983 174.597 39.0572C175.423 40.2748 174.929 41.2016 174.655 42.7736C174.136 45.8041 173.132 48.362 170.672 48.103C169.447 47.9667 168.423 47.576 167.674 46.7627C166.924 45.9495 166.434 44.7227 166.348 42.9009Z" fill="#0081B8"/>
<path d="M169.102 115.245C169.727 112.805 171.461 111.697 173.292 112.31C174.113 112.583 175.526 113.041 175.876 113.982C176.266 115.013 175.694 115.608 175.165 116.685C174.637 117.726 174.051 118.652 173.378 119.239C172.701 119.825 171.937 120.07 171.086 119.72C169.381 119.03 168.492 117.694 169.102 115.245Z" fill="#0081B8"/>
<path d="M171.137 92.1553C172.155 90.079 173.981 89.4429 175.663 90.4924C176.412 90.9604 177.709 91.7736 177.882 92.7868C178.07 93.8999 177.421 94.3406 176.691 95.2266C175.278 96.9485 173.63 98.0798 172.155 96.894C170.68 95.7082 170.113 94.2361 171.137 92.1553Z" fill="#0081B8"/>
<path d="M168.161 27.2901C168.805 25.9453 169.703 25.1274 170.559 24.8685C171.438 24.6004 172.274 24.8776 172.985 25.5681C173.307 25.8771 173.763 26.2905 174.143 26.7403C174.335 26.9675 174.498 27.2038 174.633 27.4491C174.772 27.6944 174.863 27.9443 174.887 28.2033C174.926 28.7667 174.82 29.1483 174.575 29.5118C174.325 29.8753 174.003 30.2206 173.648 30.6976C172.975 31.6244 172.283 32.4695 171.568 32.9602C170.842 33.4463 170.064 33.5781 169.257 33.0056C168.853 32.7148 168.502 32.3877 168.224 32.0152C167.955 31.6381 167.753 31.2155 167.633 30.743C167.513 30.2705 167.503 29.739 167.57 29.1665C167.657 28.594 167.849 27.9625 168.161 27.2901Z" fill="#0081B8"/>
<path d="M185.168 120.797C184.082 121.696 182.881 121.996 181.733 121.701C180.589 121.405 179.475 120.515 178.643 119.043C177.884 117.743 176.65 115.404 176.938 113.868C177.265 112.191 178.288 112.237 179.623 111.773C182.237 110.869 184.798 111.051 186.028 113.913C187.272 116.771 187.359 118.997 185.168 120.797Z" fill="#0081B8"/>
<path d="M170.548 80.3155C171.134 77.3714 173.171 75.6494 175.699 75.9084C176.823 76.0311 178.773 76.2355 179.374 77.3623C179.71 77.9802 179.686 78.5163 179.528 79.0842C179.364 79.6521 179.042 80.2473 178.725 80.9879C177.5 83.8547 175.694 86.0674 173.416 85.3995C171.13 84.7271 169.957 83.2732 170.548 80.3155Z" fill="#0081B8"/>
<path d="M187.683 146.662C186.525 148.729 184.281 148.934 182.138 147.107C181.187 146.303 179.544 144.854 179.323 143.572C179.087 142.173 179.875 141.91 180.779 141.155C182.537 139.692 184.564 139.093 186.342 140.951C188.125 142.809 188.864 144.595 187.683 146.662Z" fill="#0081B8"/>
<path d="M170.238 56.0813C170.161 54.791 170.454 53.6369 171.064 52.7919C171.674 51.9468 172.611 51.4198 173.779 51.3471C174.811 51.2835 176.623 51.1654 177.425 52.0695C178.309 53.0599 177.93 53.9777 177.704 55.368C177.646 55.7042 177.584 56.0313 177.502 56.3493C177.415 56.6674 177.319 56.9718 177.214 57.258C176.997 57.8305 176.743 58.3348 176.426 58.7482C175.777 59.5751 174.927 60.0067 173.841 59.8659C172.755 59.725 171.886 59.3934 171.261 58.8073C170.953 58.512 170.713 58.1485 170.55 57.7032C170.377 57.258 170.281 56.7355 170.238 56.0813Z" fill="#0081B8"/>
<path d="M188.43 60.3337C187.935 61.674 187.104 62.4464 186.158 62.6735C185.206 62.9052 184.154 62.6008 183.088 61.8012C182.612 61.4468 181.958 60.9698 181.387 60.4337C180.815 59.8975 180.291 59.3069 180.123 58.6845C179.941 57.9984 179.998 57.5441 180.214 57.117C180.431 56.6945 180.786 56.3037 181.147 55.7722C181.829 54.7408 182.593 53.8594 183.448 53.4323C184.303 53.0098 185.274 53.0189 186.321 53.8367C187.383 54.65 188.132 55.6086 188.55 56.6899C188.915 57.7803 188.954 58.998 188.43 60.3337Z" fill="#0081B8"/>
<path d="M182.598 32.6281C182.248 33.0279 181.849 33.3595 181.416 33.6049C180.994 33.8548 180.532 34.0183 180.052 34.0819C179.101 34.2137 178.029 33.9365 177.092 33.1187C176.881 32.937 176.636 32.7189 176.377 32.4645C176.127 32.2146 175.882 31.9329 175.651 31.6285C175.42 31.3241 175.223 31.0015 175.094 30.6699C174.964 30.3382 174.868 30.002 174.897 29.684C174.921 29.3341 174.988 29.0524 175.099 28.8253C175.209 28.5981 175.377 28.4209 175.56 28.271C175.93 27.9711 176.41 27.7667 176.982 27.4895C178.053 26.9352 179.177 26.7217 180.105 26.8671C181.042 27.0079 181.849 27.5122 182.44 28.3209C182.752 28.7389 183.002 29.1115 183.189 29.4704C183.391 29.843 183.482 30.161 183.53 30.5063C183.55 30.6744 183.545 30.8425 183.511 31.0061C183.482 31.1742 183.439 31.3514 183.362 31.524C183.194 31.8602 182.973 32.2373 182.598 32.6281Z" fill="#0081B8"/>
<path d="M187.05 90.6561C185.118 92.2644 182.99 91.542 181.736 89.0568C181.179 87.9482 180.184 86.04 180.415 84.7679C180.665 83.3685 181.501 83.3503 182.606 82.8778C184.729 81.951 186.896 81.8374 187.958 84.359C189.02 86.8851 188.981 89.0522 187.05 90.6561Z" fill="#0081B8"/>
<path d="M166.574 130.07C166.589 129.007 166.743 128.039 167.016 127.198C167.305 126.358 167.699 125.64 168.184 125.063C169.174 123.918 170.519 123.359 172.027 123.459C173.378 123.55 175.708 123.7 176.524 124.995C176.986 125.704 177.043 126.335 176.933 127.035C176.837 127.73 176.548 128.484 176.332 129.425C175.914 131.246 175.376 132.946 174.593 134.177C173.82 135.408 172.772 136.185 171.345 136.099C169.923 136.008 168.741 135.572 167.891 134.622C167.069 133.664 166.57 132.192 166.574 130.07Z" fill="#0081B8"/>
<path d="M169.752 68.0977C169.886 66.4394 170.463 65.09 171.381 64.1041C172.318 63.1136 173.567 62.5003 175.09 62.4321C176.43 62.3822 178.799 62.2731 179.697 63.5044C180.197 64.1768 180.298 64.8174 180.182 65.5125C180.077 66.2077 179.808 66.9528 179.529 67.8614C179.399 68.3021 179.26 68.7292 179.106 69.1427C178.943 69.5561 178.77 69.9514 178.582 70.3194C178.217 71.06 177.785 71.7142 177.3 72.2367C176.339 73.2817 175.167 73.7951 173.778 73.5043C170.987 72.9137 169.469 71.4007 169.752 68.0977Z" fill="#0081B8"/>
<path d="M187.837 104.936C185.589 107.412 182.682 107.203 180.626 104.441C179.713 103.214 178.137 101.056 178.286 99.3659C178.445 97.5167 179.554 97.285 180.952 96.4173C183.662 94.7362 186.477 94.1183 188.159 96.9806C189.836 99.8475 190.095 102.455 187.837 104.936Z" fill="#0081B8"/>
<path d="M186.608 46.3C185.931 47.7811 184.869 48.6262 183.61 48.7988C182.352 48.9715 180.896 48.4944 179.45 47.3859C178.162 46.4045 175.919 44.6826 175.558 43.0015C175.361 42.0883 175.525 41.5204 175.88 41.0615C176.231 40.6026 176.779 40.2391 177.36 39.7303C178.479 38.7398 179.743 38.072 180.973 37.9175C182.212 37.763 183.418 38.0856 184.566 39.1033C185.72 40.1256 186.57 41.1705 186.959 42.3473C187.353 43.5195 187.286 44.8189 186.608 46.3Z" fill="#0081B8"/>
<path d="M170.248 143.204C170.032 141.505 170.344 140.042 171.007 139.002C171.685 137.957 172.722 137.334 173.991 137.239C175.12 137.152 177.075 136.998 177.926 137.979C178.396 138.515 178.531 139.038 178.521 139.629C178.517 140.219 178.382 140.878 178.3 141.682C178.156 143.236 177.873 144.699 177.339 145.785C176.797 146.875 175.999 147.593 174.798 147.639C172.415 147.729 170.69 146.607 170.248 143.204Z" fill="#0081B8"/>
<path d="M185.998 132.487C184.586 134.685 182.16 134.976 179.954 132.991C179.474 132.55 178.816 131.937 178.254 131.251C177.701 130.565 177.264 129.801 177.187 129.097C177.072 127.548 177.951 127.266 179.013 126.467C181.079 124.908 183.365 124.377 185.076 126.412C186.825 128.447 187.44 130.292 185.998 132.487Z" fill="#0081B8"/>
<path d="M189.817 77.0805C188.89 78.2118 187.814 78.6752 186.757 78.5571C185.705 78.439 184.662 77.7302 183.783 76.508C183.399 75.9674 182.846 75.2268 182.399 74.4544C181.962 73.6821 181.607 72.8733 181.611 72.1555C181.635 70.588 182.51 70.3609 183.61 69.5567C184.677 68.7752 185.748 68.1937 186.795 68.121C187.833 68.0438 188.856 68.489 189.673 69.7566C191.335 72.3009 191.672 74.8179 189.817 77.0805Z" fill="#0081B8"/>
<path d="M181.883 151.373C179.817 146.107 178.121 140.696 176.992 135.149C176.425 132.377 176.007 129.57 175.753 126.744C175.498 123.918 175.416 121.078 175.455 118.243C175.474 116.826 175.512 115.408 175.58 113.995C175.661 112.582 175.758 111.169 175.878 109.761C176.118 106.944 176.421 104.131 176.752 101.333C177.444 95.7353 178.28 90.1788 178.856 84.6177C179.5 79.0657 179.884 73.5046 179.731 67.9663C179.668 65.1994 179.457 62.437 179.053 59.6974C178.861 58.3253 178.592 56.9714 178.323 55.6129C178.04 54.2544 177.713 52.9005 177.357 51.5421C176.646 48.8297 175.868 46.1037 175.248 43.3277C174.638 40.5517 174.172 37.7212 174.153 34.8679C174.158 32.0238 174.561 29.166 175.561 26.5082C176.56 23.8594 178.189 21.4332 180.394 19.6704L180.552 19.8249C178.525 21.6967 177.117 24.1229 176.296 26.7172C175.479 29.3205 175.224 32.0829 175.34 34.818C175.474 37.5531 176.031 40.2882 176.723 42.9915C177.425 45.6948 178.28 48.3799 179.068 51.1059C179.462 52.4689 179.836 53.841 180.168 55.2267C180.485 56.617 180.778 58.0118 181.004 59.4202C181.465 62.228 181.734 65.0631 181.85 67.8981C182.08 73.5728 181.705 79.2338 181.1 84.8449C179.841 96.0624 177.674 107.135 177.228 118.311C177.117 121.101 177.112 123.89 177.271 126.671C177.425 129.452 177.732 132.228 178.169 134.985C179.044 140.506 180.423 145.953 182.095 151.319L181.883 151.373Z" fill="#003F88"/>
<path d="M155.212 116.1C154.443 115.237 154.015 114.442 153.862 113.537C153.718 112.638 153.847 111.588 154.299 110.407C154.717 109.371 155.279 107.404 156.225 106.981C157.268 106.523 157.821 107.345 158.805 108.294C159.757 109.212 160.564 110.344 160.915 111.652C161.27 112.942 161.121 114.442 160.232 115.641C160.026 115.936 159.781 116.2 159.55 116.427C159.315 116.65 159.103 116.841 158.858 116.99C158.383 117.29 157.936 117.44 157.518 117.454C156.677 117.477 155.937 116.95 155.212 116.1Z" fill="#0081B8"/>
<path d="M143.595 71.9471C144.215 69.4846 146.358 68.2124 148.856 68.6986C149.966 68.9166 151.902 69.2846 152.455 70.2433C153.06 71.2928 152.373 71.9607 151.734 73.1056C150.495 75.3228 148.755 77.0265 146.473 76.3541C144.191 75.6817 142.976 74.4096 143.595 71.9471Z" fill="#0081B8"/>
<path d="M158.589 17.8632C159.261 17.4815 159.929 17.2271 160.563 17.1044C161.202 16.9954 161.808 17.0181 162.365 17.1453C163.475 17.4088 164.373 18.1267 164.954 19.208C165.473 20.1712 166.396 21.825 165.978 22.8381C165.757 23.4061 165.416 23.6832 164.945 23.8558C164.709 23.9422 164.45 24.0058 164.162 24.0694C163.878 24.1375 163.571 24.2148 163.239 24.3102C162.6 24.5055 161.937 24.6464 161.322 24.7645C160.707 24.8826 160.102 24.9372 159.535 24.9144C158.406 24.8554 157.426 24.4783 156.83 23.4787C156.239 22.4838 155.999 21.5024 156.249 20.5301C156.369 20.0349 156.624 19.5851 157.008 19.1353C157.397 18.6991 157.911 18.2357 158.589 17.8632Z" fill="#0081B8"/>
<path d="M146.189 81.0657C146.655 79.2075 148.269 78.2534 150.152 78.6168C150.988 78.7804 152.449 79.0576 152.862 79.7799C153.318 80.5705 152.8 81.0748 152.319 81.9335C151.382 83.6009 150.075 84.8867 148.355 84.3824C146.635 83.8826 145.718 82.924 146.189 81.0657Z" fill="#0081B8"/>
<path d="M145.54 63.0918C146.27 61.3381 148 60.6612 149.806 61.3336C150.609 61.6334 152.012 62.1514 152.319 62.9374C152.655 63.7961 152.074 64.205 151.474 64.9773C150.311 66.4721 148.836 67.5216 147.207 66.7356C145.574 65.9496 144.81 64.8501 145.54 63.0918Z" fill="#0081B8"/>
<path d="M169.319 12.656C171.361 12.1653 172.937 13.1331 173.346 14.9368C173.528 15.7409 173.864 17.1267 173.36 17.8082C172.807 18.5624 172.125 18.3534 171.102 18.3488C169.132 18.3534 167.287 17.9354 166.989 16.218C166.845 15.3548 166.912 14.6006 167.278 13.9827C167.638 13.3739 168.296 12.9195 169.319 12.656Z" fill="#0081B8"/>
<path d="M162.459 85.0732C160.297 86.6542 157.659 86.0545 155.896 83.7147C155.113 82.6743 153.739 80.866 153.916 79.6393C154.109 78.2899 155.127 78.2672 156.424 77.8083C158.937 76.9178 161.522 76.8361 162.987 79.1668C164.448 81.4884 164.616 83.4921 162.459 85.0732Z" fill="#0081B8"/>
<path d="M143.567 53.47C143.73 52.1706 144.316 51.0893 145.181 50.3669C146.046 49.649 147.184 49.2946 148.448 49.4037C149.572 49.4946 151.527 49.6536 152.176 50.5486C152.882 51.53 152.277 52.2751 151.777 53.5063C150.807 55.8825 149.289 57.8044 146.944 57.4591C144.599 57.1001 143.245 56.0324 143.567 53.47Z" fill="#0081B8"/>
<path d="M163.094 105.496C162.465 106.427 161.59 106.94 160.62 107.009C159.649 107.077 158.588 106.741 157.584 106.036C156.69 105.414 155.133 104.346 154.984 103.319C154.831 102.206 155.643 101.979 156.594 101.384C157.516 100.811 158.506 100.421 159.457 100.343C160.404 100.262 161.312 100.484 162.109 101.084C162.897 101.661 163.459 102.274 163.661 103.001C163.767 103.369 163.776 103.746 163.69 104.174C163.599 104.582 163.407 105.032 163.094 105.496Z" fill="#0081B8"/>
<path d="M149.989 28.281C150.493 27.7086 151.041 27.2679 151.584 26.9498C151.858 26.7908 152.132 26.6636 152.401 26.5727C152.679 26.4864 152.958 26.4319 153.232 26.4092C154.323 26.3092 155.322 26.6999 156.124 27.4996C156.845 28.2129 158.084 29.4169 158.017 30.4209C157.988 30.9843 157.762 31.316 157.407 31.6022C157.229 31.7476 157.008 31.8703 156.782 32.0157C156.561 32.161 156.312 32.3201 156.052 32.5063C155.557 32.8744 155.014 33.1969 154.519 33.5013C154.025 33.8012 153.525 34.0511 153.025 34.2192C152.031 34.5463 151.041 34.5554 150.2 33.8921C149.36 33.2287 148.826 32.4518 148.73 31.5068C148.6 30.5391 149.042 29.485 149.989 28.281Z" fill="#0081B8"/>
<path d="M163.105 40.1165C161.418 40.998 159.184 40.8707 157.68 39.1397C157.349 38.7581 156.921 38.222 156.59 37.6359C156.282 37.0634 156.071 36.4319 156.22 35.9412C156.383 35.4051 156.681 35.137 157.075 34.9871C157.469 34.8326 157.945 34.7826 158.531 34.6827C159.65 34.4873 160.712 34.51 161.606 34.8144C162.499 35.1143 163.225 35.6958 163.7 36.55C163.945 36.9771 164.104 37.3587 164.239 37.7131C164.373 38.0675 164.436 38.3855 164.407 38.6672C164.378 38.9489 164.248 39.1988 164.056 39.4396C163.955 39.5577 163.821 39.6713 163.662 39.7803C163.499 39.8939 163.321 40.0075 163.105 40.1165Z" fill="#0081B8"/>
<path d="M175.447 25.9776C174.352 25.9412 173.415 25.546 172.752 24.8872C172.089 24.2238 171.675 23.2743 171.68 22.1521C171.675 21.1525 171.709 19.3761 172.526 18.6946C173.405 17.9358 174.116 18.4129 175.236 18.7491C177.402 19.4079 179.117 20.6573 178.805 22.7427C178.512 24.8327 177.628 26.0457 175.447 25.9776Z" fill="#0081B8"/>
<path d="M161.128 60.4208C159.418 61.8383 157.213 61.4885 155.651 59.6484C154.955 58.8306 153.739 57.4131 153.831 56.3909C153.931 55.2686 154.767 55.1914 155.815 54.7462C157.847 53.8829 159.975 53.6739 161.292 55.5185C162.608 57.3586 162.839 58.9987 161.128 60.4208Z" fill="#0081B8"/>
<path d="M143.539 91.9838C143.727 90.38 144.423 89.1623 145.442 88.3491C146.46 87.5358 147.806 87.1269 149.319 87.2178C150.664 87.2996 152.999 87.4404 153.782 88.4899C154.638 89.6394 153.917 90.5299 153.326 91.9883C152.754 93.4058 152.048 94.7098 151.145 95.6548C150.242 96.5953 149.127 97.1723 147.719 97.0223C146.312 96.8724 145.178 96.4408 144.438 95.6185C143.698 94.8006 143.352 93.5876 143.539 91.9838Z" fill="#0081B8"/>
<path d="M143.115 41.302C143.6 39.4438 144.662 37.9899 145.911 37.2221C147.184 36.4361 148.621 36.3225 150.038 36.8314C151.297 37.2812 153.497 38.0626 153.958 39.2802C154.506 40.616 153.612 41.3293 152.776 42.7423C151.191 45.4547 149.298 47.8218 146.526 47.222C145.147 46.9131 144.076 46.3633 143.446 45.4274C142.822 44.4869 142.63 43.1557 143.115 41.302Z" fill="#0081B8"/>
<path d="M163.835 71.6064C161.908 73.8281 158.992 73.8826 156.614 71.8699C155.557 70.9748 153.707 69.421 153.621 68.0807C153.525 66.6087 154.591 66.3224 155.86 65.5001C158.315 63.9099 161.02 63.1603 163.081 65.2366C165.137 67.3129 165.762 69.3847 163.835 71.6064Z" fill="#0081B8"/>
<path d="M167.904 34.3598C166.592 34.3052 165.372 33.9009 164.396 33.1285C163.44 32.3652 162.71 31.1885 162.609 29.7255C162.551 29.0713 162.489 28.1444 162.628 27.2767C162.691 26.8405 162.787 26.4089 162.936 26.0272C163.09 25.6547 163.301 25.3366 163.565 25.1049C164.713 24.0872 165.617 24.7642 167.005 25.273C168.355 25.7728 169.537 26.4816 170.335 27.3948C171.123 28.2989 171.55 29.403 171.43 30.6751C171.353 31.3066 171.295 31.8745 171.156 32.3516C171.089 32.5878 171.002 32.8059 170.901 33.0013C170.801 33.1967 170.705 33.3738 170.575 33.5283C170.325 33.8373 169.965 34.0554 169.537 34.1962C169.109 34.3325 168.576 34.387 167.904 34.3598Z" fill="#0081B8"/>
<path d="M145.998 103.079C145.887 101.534 146.319 100.276 147.083 99.4215C147.852 98.5673 148.947 98.1084 150.216 98.0903C151.35 98.0721 153.31 98.0403 154.055 98.849C154.876 99.7304 154.376 100.516 154.098 101.816C153.834 103.07 153.492 104.283 152.911 105.192C152.33 106.1 151.503 106.718 150.317 106.814C149.13 106.9 148.14 106.777 147.386 106.209C147.011 105.941 146.699 105.546 146.454 105.023C146.223 104.515 146.05 103.842 145.998 103.079Z" fill="#0081B8"/>
<path d="M162.658 94.9643C161.02 96.5636 158.574 96.7044 156.595 95.0189C155.716 94.2783 154.212 92.9062 154.202 91.7749C154.188 90.5391 155.096 90.3574 156.196 89.7531C158.334 88.5718 160.635 88.122 162.259 89.9575C163.878 91.7885 164.306 93.3605 162.658 94.9643Z" fill="#0081B8"/>
<path d="M162.598 50.13C160.839 51.7111 158.394 51.6202 156.544 49.7847C155.723 48.9806 154.315 47.5267 154.396 46.3999C154.493 45.1732 155.425 45.0733 156.582 44.6098C158.85 43.7103 161.166 43.7284 162.588 45.414C164.029 47.1132 164.366 48.558 162.598 50.13Z" fill="#0081B8"/>
<path d="M156.982 109.557C156.295 107.385 155.425 105.313 154.762 103.164C154.104 101.015 153.686 98.7938 153.417 96.563C153.143 94.3277 153.018 92.0832 152.922 89.8524C152.831 87.6171 152.754 85.3909 152.682 83.1601L152.571 79.8162L152.499 76.4723L152.365 69.7799L152.264 56.3997C152.317 51.9563 152.22 47.422 152.956 42.8696C153.34 40.6025 153.921 38.3399 154.815 36.1727C154.921 35.9001 155.041 35.632 155.17 35.3685L155.55 34.5734C155.68 34.3099 155.8 34.0418 155.934 33.7829L156.381 33.0241C156.953 32.0019 157.649 31.0478 158.336 30.1028C159.754 28.2309 161.402 26.5499 163.146 25.0006C164.015 24.2146 164.938 23.5013 165.86 22.7789C166.807 22.0928 167.748 21.4022 168.728 20.7707C172.625 18.1901 176.781 16.0638 180.999 14.042L181.119 14.2237C177.117 16.5681 173.139 18.9443 169.464 21.6612C168.536 22.3291 167.652 23.0469 166.763 23.7557C165.903 24.4963 165.034 25.2277 164.231 26.0137C162.608 27.5766 161.094 29.235 159.811 31.0432C158.533 32.8515 157.486 34.7915 156.679 36.8178C155.891 38.8487 155.391 40.9886 155.069 43.1513C154.435 47.4902 154.536 51.9381 154.531 56.4042L154.474 83.1692L154.459 89.857C154.459 92.0832 154.479 94.3004 154.623 96.4994C154.767 98.6984 155.036 100.884 155.526 103.019C156.021 105.159 156.722 107.294 157.212 109.525L156.982 109.557Z" fill="#003F88"/>
<path d="M200.771 114.259C199.8 113.669 199.195 112.81 199.022 111.851C198.864 110.897 199.094 109.843 199.772 108.875C200.377 108.008 201.424 106.531 202.457 106.39C203.591 106.231 203.903 106.995 204.643 107.858C205.004 108.276 205.321 108.703 205.575 109.139C205.84 109.571 206.041 110.007 206.152 110.443C206.262 110.879 206.286 111.315 206.19 111.742C206.104 112.169 205.912 112.592 205.575 113.014C204.23 114.682 202.721 115.432 200.771 114.259Z" fill="#0081B8"/>
<path d="M192.092 78.2758C192.303 77.3762 192.928 76.6311 193.797 76.1177C194.653 75.6089 195.782 75.3135 197.05 75.3453C198.179 75.3726 200.149 75.4317 200.773 76.1541C201.461 76.9401 200.85 77.5489 200.288 78.5075C199.731 79.4435 199.039 80.2613 198.198 80.7883C197.362 81.3153 196.349 81.5561 195.205 81.3471C194.057 81.1381 193.149 80.8292 192.606 80.3385C192.332 80.0932 192.15 79.8069 192.063 79.4616C191.981 79.1163 191.991 78.7211 192.092 78.2758Z" fill="#0081B8"/>
<path d="M183.112 38.3811C183.367 36.223 185.317 34.8645 187.849 34.9009C188.973 34.9145 190.938 34.9372 191.616 35.6278C192.356 36.3911 191.774 37.0317 191.308 38.063C190.405 40.0576 188.978 41.7568 186.619 41.5932C184.27 41.4251 182.862 40.5437 183.112 38.3811Z" fill="#0081B8"/>
<path d="M195.024 84.9777C195.486 83.5329 197.047 82.7514 198.95 82.9786C199.79 83.0831 201.26 83.2693 201.688 83.8509C202.149 84.4915 201.64 84.9095 201.164 85.6137C200.252 86.9767 198.911 87.999 197.201 87.581C195.481 87.1675 194.578 86.4179 195.024 84.9777Z" fill="#0081B8"/>
<path d="M193.074 71.7743C193.54 70.4204 195.068 69.5254 196.961 69.6435C197.792 69.698 199.271 69.8025 199.689 70.3659C200.155 70.9792 199.651 71.4154 199.175 72.1151C198.729 72.7875 198.147 73.3781 197.475 73.7507C196.807 74.1232 196.043 74.2732 195.197 74.1005C193.521 73.7416 192.593 73.1373 193.074 71.7743Z" fill="#0081B8"/>
<path d="M184.054 29.7438C184.535 28.199 186.159 27.404 188.037 27.6947C188.873 27.8265 190.324 28.0446 190.733 28.6352C191.184 29.2849 190.661 29.6983 190.175 30.4117C189.234 31.7928 187.927 32.8787 186.207 32.4834C184.487 32.0882 183.574 31.2931 184.054 29.7438Z" fill="#0081B8"/>
<path d="M211.292 88.2624C209.121 89.5982 206.488 89.0212 204.739 87.0721C203.965 86.1998 202.563 84.7232 202.736 83.7146C202.889 82.6014 203.903 82.5515 205.186 82.1244C207.67 81.2929 210.25 81.0749 211.787 83.1103C213.3 85.1366 213.473 86.9403 211.292 88.2624Z" fill="#0081B8"/>
<path d="M189.246 65.4001C188.939 63.4146 190.399 61.6018 192.859 60.9976C193.95 60.725 195.852 60.2525 196.707 60.7522C197.649 61.2974 197.27 62.0607 197.101 63.1466C196.775 65.2683 195.732 67.1129 193.397 67.4355C191.057 67.7672 189.539 67.3674 189.246 65.4001Z" fill="#0081B8"/>
<path d="M209.5 106.544C207.804 107.649 205.584 107.421 204.023 105.922C203.336 105.259 202.125 104.082 202.236 103.246C202.356 102.328 203.196 102.283 204.253 101.938C206.305 101.274 208.433 101.174 209.716 102.674C210.35 103.428 210.73 104.114 210.735 104.754C210.735 105.39 210.355 105.99 209.5 106.544Z" fill="#0081B8"/>
<path d="M185.109 47.281C185.176 45.2683 186.848 43.9007 189.159 43.7917C190.187 43.7417 191.975 43.6463 192.638 44.2369C193.363 44.8866 192.883 45.5045 192.537 46.4723C191.859 48.3487 190.711 49.9979 188.554 50.007C186.406 50.0116 185.052 49.2937 185.109 47.281Z" fill="#0081B8"/>
<path d="M202.912 48.3944C201.946 50.0573 199.847 50.7706 197.704 50.1209C196.753 49.8301 195.076 49.3122 194.754 48.5217C194.399 47.6584 195.11 47.2677 195.888 46.5226C197.392 45.0778 199.246 44.1328 201.144 44.9279C202.09 45.3231 202.773 45.7775 203.104 46.3363C203.431 46.8906 203.392 47.563 202.912 48.3944Z" fill="#0081B8"/>
<path d="M199.308 30.1212C198.194 31.7478 196.027 32.243 193.951 31.3888C193.029 31.0072 191.419 30.3439 191.165 29.5306C190.881 28.6447 191.636 28.3085 192.467 27.6179C194.076 26.2821 195.993 25.428 197.833 26.3866C199.669 27.3453 200.423 28.4902 199.308 30.1212Z" fill="#0081B8"/>
<path d="M207.776 66.4178C206.431 68.058 204.197 68.1488 202.29 67.013C201.439 66.4996 199.94 65.6773 199.782 64.8504C199.609 63.9371 200.387 63.6555 201.281 63.0148C203.01 61.7791 204.99 60.993 206.729 62.1698C208.468 63.3511 209.117 64.7822 207.776 66.4178Z" fill="#0081B8"/>
<path d="M192.231 93.4733C192.351 92.8691 192.596 92.3284 192.932 91.8605C193.269 91.4016 193.706 91.0063 194.225 90.6974C195.258 90.0749 196.612 89.766 198.121 89.8659C199.462 89.9568 201.796 90.1113 202.556 90.9881C203.392 91.9513 202.647 92.6692 202.003 93.8414C200.754 96.113 198.861 97.9258 196.084 97.4806C194.696 97.258 193.61 96.8627 192.932 96.2175C192.255 95.5724 191.991 94.6682 192.231 93.4733Z" fill="#0081B8"/>
<path d="M185.368 57.0861C185.171 55.7367 185.575 54.5282 186.367 53.6059C187.175 52.679 188.395 52.0338 189.879 51.7703C191.205 51.5341 193.497 51.1206 194.477 51.7794C195.563 52.4973 195.044 53.3741 194.814 54.6917C194.343 57.2451 193.218 59.5804 190.432 60.0074C187.655 60.43 185.743 59.8075 185.368 57.0861Z" fill="#0081B8"/>
<path d="M212.213 76.245C211.368 77.3581 210.191 77.9442 208.927 78.0714C207.664 78.1941 206.328 77.8579 205.045 77.1082C203.897 76.4313 201.966 75.3409 201.697 74.2777C201.418 73.0964 202.46 72.7148 203.575 71.8334C205.732 70.1342 208.235 68.8575 210.647 70.4477C213.021 72.0287 213.938 74.0278 212.213 76.245Z" fill="#0081B8"/>
<path d="M202.498 40.3257C200.691 42.2203 197.804 42.5519 195.32 41.0935C194.215 40.4484 192.298 39.2989 192.159 38.1994C192.005 36.9954 193.057 36.7001 194.292 35.9641C196.689 34.5375 199.37 33.8196 201.484 35.3553C203.617 36.8864 204.304 38.4357 202.498 40.3257Z" fill="#0081B8"/>
<path d="M193.509 101.633C193.898 99.5025 195.94 98.3076 198.462 98.5075C199.586 98.5984 201.547 98.7528 202.176 99.4934C202.868 100.307 202.243 100.902 201.71 101.892C200.667 103.805 199.14 105.391 196.795 105.068C194.46 104.746 193.11 103.76 193.509 101.633Z" fill="#0081B8"/>
<path d="M211.155 96.8949C209.378 98.2715 206.937 98.0853 205.102 96.5269C204.285 95.8318 202.863 94.6278 202.887 93.7009C202.916 92.6832 203.828 92.5651 204.948 92.088C207.105 91.1657 209.421 90.8068 211.001 92.4242C212.572 94.0235 212.938 95.5273 211.155 96.8949Z" fill="#0081B8"/>
<path d="M206.482 57.3219C205.286 59.1801 202.917 59.7617 200.64 58.8621C199.626 58.4623 197.863 57.7717 197.579 56.8857C197.267 55.918 198.098 55.5318 199.006 54.7685C200.789 53.2874 202.912 52.3878 204.877 53.3328C206.857 54.2733 207.683 55.4682 206.482 57.3219Z" fill="#0081B8"/>
<path d="M202.576 108.557C201.653 101.265 201.807 93.8778 201.533 86.6084L201.394 83.8824L201.23 81.17C201.163 80.2659 201.067 79.3708 200.985 78.4712C200.889 77.5717 200.755 76.6812 200.644 75.7861C200.159 72.2105 199.39 68.7257 198.285 65.2637C197.267 61.7789 196.013 58.3033 195.028 54.7186C194.538 52.9285 194.11 51.1248 193.697 49.3211C193.505 48.4169 193.293 47.5173 193.13 46.6087C192.957 45.7 192.799 44.7913 192.645 43.8827C191.401 36.6087 190.771 29.2939 190.512 21.9428L190.738 21.9155C191.799 29.1667 192.861 36.4088 194.384 43.5555C195.148 47.1266 196.018 50.6795 197.07 54.1779C198.103 57.6763 199.371 61.1338 200.452 64.6776C201.538 68.2169 202.331 71.8834 202.758 75.5589C203.195 79.2391 203.325 82.9328 203.311 86.6129C203.282 93.9732 202.696 101.279 202.801 108.557H202.576Z" fill="#003F88"/>
<path d="M115.432 57.9447C114.351 57.3268 113.669 56.2182 113.525 54.9915C113.376 53.7648 113.751 52.4563 114.596 51.4022C114.976 50.9297 115.5 50.3118 116.081 49.8393C116.653 49.3622 117.277 49.026 117.796 49.0533C118.944 49.1169 119.036 50.012 119.593 51.0342C120.131 52.0292 120.568 52.9697 120.717 53.8147C120.866 54.6689 120.727 55.4231 120.093 56.2454C119.459 57.0678 118.863 57.7584 118.128 58.1355C117.393 58.508 116.523 58.5626 115.432 57.9447Z" fill="#0081B8"/>
<path d="M128.905 14.3235C130.222 13.701 131.495 13.5875 132.552 13.91C133.609 14.2281 134.474 15.0186 135.002 16.1045C135.478 17.0768 136.343 18.7714 135.929 19.7437C135.487 20.8205 134.522 20.6615 133.249 20.9568C132.009 21.2294 130.731 21.3339 129.665 21.1749C128.598 21.0158 127.685 20.5388 127.147 19.5165C126.609 18.4988 126.378 17.522 126.652 16.6588C126.907 15.791 127.618 14.9777 128.905 14.3235Z" fill="#0081B8"/>
<path d="M182.533 0.757539C182.86 0.843863 183.167 0.957447 183.451 1.08466C183.739 1.21642 184.008 1.37089 184.243 1.539C184.719 1.87521 185.113 2.29319 185.382 2.75207C185.925 3.66983 186.021 4.7875 185.651 5.93697C185.324 6.96831 184.781 8.75385 183.801 9.21727C182.73 9.72613 182.12 9.04917 181.015 8.40401C178.882 7.15004 177.171 5.50081 177.882 3.34725C178.608 1.1937 179.972 0.0669486 182.533 0.757539Z" fill="#0081B8"/>
<path d="M123.35 22.9463C124.21 22.3557 125.109 22.133 125.925 22.2557C126.752 22.3829 127.501 22.8554 128.049 23.5915C128.534 24.2457 129.409 25.3861 129.245 26.163C129.067 27.0081 128.356 27.0353 127.415 27.3579C125.647 28.0121 123.792 28.2938 122.74 26.9036C122.221 26.2084 121.947 25.5269 122.01 24.8545C122.043 24.5183 122.159 24.1866 122.37 23.8641C122.591 23.546 122.923 23.2416 123.35 22.9463Z" fill="#0081B8"/>
<path d="M138.29 10.2842C138.809 10.1888 139.285 10.1797 139.722 10.266C140.164 10.3569 140.553 10.5295 140.88 10.7658C141.538 11.2383 141.951 11.9788 142.071 12.883C142.124 13.2873 142.206 13.8371 142.206 14.3596C142.206 14.8866 142.143 15.4045 141.884 15.718C141.322 16.4177 140.673 16.1451 139.679 16.0542C139.194 16.0043 138.732 15.9543 138.3 15.8634C137.868 15.7725 137.459 15.6408 137.104 15.4636C136.393 15.1047 135.883 14.5458 135.773 13.6781C135.667 12.8148 135.758 12.047 136.157 11.4609C136.561 10.8884 137.257 10.475 138.29 10.2842Z" fill="#0081B8"/>
<path d="M193.759 4.4785C194.24 4.76928 194.629 5.15092 194.893 5.51893C195.162 5.88694 195.321 6.28676 195.369 6.68657C195.47 7.48166 195.133 8.25403 194.475 8.93553C193.884 9.52617 192.928 10.6347 192.111 10.7029C191.655 10.7529 191.372 10.6257 191.122 10.3849C190.867 10.1532 190.646 9.82603 190.324 9.46711C189.085 8.1041 188.109 6.59116 189.2 5.17818C189.748 4.46942 190.396 4.01054 191.151 3.84698C191.91 3.70159 192.784 3.86515 193.759 4.4785Z" fill="#0081B8"/>
<path d="M133.595 35.4231C132.317 35.2914 131.246 34.8279 130.424 34.0147C129.603 33.2014 129.142 32.1019 129.118 30.7616C129.113 30.4663 129.108 30.1119 129.122 29.7303C129.132 29.3486 129.161 28.9488 129.243 28.5717C129.391 27.813 129.661 27.0951 130.122 26.7271C130.376 26.5227 130.612 26.4091 130.847 26.3682C131.087 26.3319 131.323 26.3591 131.558 26.4273C132.034 26.5636 132.534 26.8634 133.149 27.1497C135.546 28.2446 137.333 29.9893 137.093 32.22C137.011 33.3695 136.747 34.2191 136.204 34.7552C135.685 35.3186 134.859 35.5503 133.595 35.4231Z" fill="#0081B8"/>
<path d="M147.437 4.09244C148.162 3.92434 148.854 3.85164 149.488 3.92434C150.122 4.00157 150.699 4.18331 151.194 4.45591C152.188 4.99657 152.87 5.94613 153.149 7.10923C153.404 8.15875 153.831 9.94883 153.188 10.7984C152.832 11.2664 152.438 11.4118 151.958 11.4345C151.482 11.4754 150.929 11.3936 150.257 11.38C149.608 11.3664 148.964 11.3118 148.354 11.2119C147.749 11.121 147.187 11.0074 146.673 10.8075C145.649 10.4168 144.847 9.75801 144.53 8.67669C144.218 7.59537 144.208 6.63672 144.645 5.84163C144.866 5.44636 145.188 5.07381 145.654 4.78757C146.115 4.50134 146.706 4.26963 147.437 4.09244Z" fill="#0081B8"/>
<path d="M124.641 50.6527C123.685 50.998 122.69 51.0298 121.768 50.7481C120.85 50.4664 120.014 49.844 119.452 48.8808C118.933 48.0312 118.179 46.4773 118.549 45.5823C118.751 45.1007 119.053 44.9008 119.452 44.819C119.861 44.7418 120.351 44.7736 120.918 44.7463C123.128 44.6464 125.15 45.2506 125.88 47.0089C126.712 48.7854 126.529 49.9666 124.641 50.6527Z" fill="#0081B8"/>
<path d="M171.333 0.921121C173.784 1.30731 175.061 3.12919 174.706 5.29183C174.552 6.25502 174.293 7.93152 173.457 8.44946C172.544 9.01284 171.915 8.4631 170.829 7.98604C169.781 7.52716 168.816 6.96833 168.158 6.27774C167.499 5.58715 167.139 4.75571 167.336 3.74255C167.72 1.72075 168.883 0.539479 171.333 0.921121Z" fill="#0081B8"/>
<path d="M166.797 17.4264C165.932 16.863 165.375 16.0815 165.163 15.1865C164.952 14.296 165.082 13.2828 165.634 12.3151C166.119 11.4564 167.013 9.94801 168.003 9.75264C169.084 9.52548 169.42 10.2797 170.146 11.1066C171.558 12.724 172.274 14.6322 171.02 16.2633C169.776 17.9216 168.512 18.5395 166.797 17.4264Z" fill="#0081B8"/>
<path d="M187.534 17.6899C186.434 16.2179 186.386 14.0916 187.952 12.4878C188.635 11.7699 189.932 10.575 190.95 10.6795C191.498 10.7477 191.786 10.9839 191.974 11.3247C192.161 11.6791 192.247 12.1334 192.401 12.6422C192.694 13.6327 192.723 14.6277 192.478 15.4864C192.238 16.3496 191.719 17.1038 190.989 17.6854C189.514 18.8621 188.61 19.1892 187.534 17.6899Z" fill="#0081B8"/>
<path d="M148.222 21.916C146.367 21.0119 145.474 19.1037 146.305 17.0137C146.646 16.0642 147.4 14.5149 148.356 14.1969C148.875 14.0287 149.231 14.1151 149.557 14.3468C149.884 14.5876 150.182 14.9601 150.571 15.3509C152.094 16.8683 152.925 18.7175 151.993 20.3849C151.546 21.2618 151.061 21.866 150.456 22.1296C150.307 22.1977 150.143 22.2386 149.975 22.2613C149.812 22.2931 149.639 22.3022 149.456 22.2886C149.091 22.2659 148.683 22.1432 148.222 21.916Z" fill="#0081B8"/>
<path d="M114.086 30.9799C114.624 30.3166 115.22 29.7805 115.854 29.3897C116.171 29.1944 116.493 29.0354 116.82 28.9082C117.151 28.79 117.497 28.7082 117.838 28.6628C119.208 28.4765 120.567 28.8582 121.754 29.7441C122.811 30.5301 124.651 31.9022 124.728 33.1062C124.757 33.7605 124.555 34.1875 124.147 34.5419C123.743 34.9008 123.166 35.2052 122.532 35.6414C121.346 36.5137 120.116 37.2725 118.838 37.6269C117.603 37.9949 116.359 37.9858 115.181 37.2316C114.595 36.8545 114.105 36.4456 113.726 36.0049C113.346 35.5596 113.077 35.0826 112.971 34.5692C112.856 34.0558 112.88 33.4969 113.058 32.8972C113.144 32.5974 113.274 32.2839 113.442 31.9613C113.601 31.6433 113.807 31.307 114.086 30.9799Z" fill="#0081B8"/>
<path d="M159.102 0.01202C159.967 -0.0379569 160.764 0.0710855 161.475 0.28008C162.181 0.493618 162.796 0.83437 163.306 1.2569C164.324 2.10197 164.896 3.3423 164.963 4.76437C165.026 6.04105 165.127 8.2355 164.195 9.09873C163.171 10.0347 162.22 9.48038 160.678 9.14417C159.188 8.82614 157.766 8.39451 156.671 7.70392C155.58 7.03151 154.802 6.08649 154.691 4.75074C154.586 3.41954 154.802 2.28824 155.499 1.45681C156.186 0.643547 157.367 0.102887 159.102 0.01202Z" fill="#0081B8"/>
<path d="M142.107 28.8349C141.444 28.735 140.848 28.5714 140.286 28.3034C139.729 28.0353 139.224 27.6809 138.792 27.2402C137.932 26.3679 137.36 25.1457 137.312 23.7146C137.297 23.0876 137.288 22.2153 137.422 21.3884C137.552 20.566 137.807 19.7664 138.335 19.3893C139.464 18.5351 140.31 19.203 141.636 19.7846C144.269 20.9749 146.099 22.9286 145.777 25.3865C145.643 26.645 145.378 27.6128 144.802 28.1807C144.509 28.4533 144.182 28.6941 143.735 28.7986C143.298 28.9122 142.76 28.9258 142.107 28.8349Z" fill="#0081B8"/>
<path d="M175.974 18.3263C174.201 16.3045 174.36 13.5512 176.579 11.5158C177.559 10.6162 179.332 9.06236 180.653 9.16231C182.099 9.26681 182.21 10.3118 182.767 11.6066C183.843 14.1418 183.925 16.7588 181.826 18.3808C180.759 19.2031 179.692 19.6893 178.736 19.7256C177.771 19.7665 176.867 19.3485 175.974 18.3263Z" fill="#0081B8"/>
<path d="M110.789 41.3478C111.456 40.1165 112.379 39.2714 113.47 38.9261C114.565 38.5763 115.752 38.6853 116.881 39.2351C117.885 39.7212 119.638 40.5663 119.893 41.5477C120.21 42.6335 119.417 43.0606 118.514 43.9738C118.067 44.41 117.654 44.8416 117.203 45.2142C116.756 45.5867 116.28 45.9047 115.79 46.141C114.81 46.6135 113.753 46.7634 112.677 46.3046C111.601 45.8457 110.822 45.246 110.462 44.4372C110.284 44.0329 110.207 43.574 110.251 43.0561C110.294 42.5381 110.448 41.9611 110.789 41.3478Z" fill="#0081B8"/>
<path d="M129.29 42.2656C128.194 42.5064 127.133 42.4064 126.172 41.9521C125.696 41.7249 125.254 41.4114 124.87 41.0162C124.481 40.6164 124.154 40.1348 123.933 39.585C123.731 39.0943 123.457 38.4083 123.304 37.7222C123.155 37.0407 123.097 36.3411 123.395 35.9049C124.015 34.9281 124.879 35.2279 126.109 35.3143C127.296 35.396 128.425 35.6777 129.323 36.1957C129.77 36.4546 130.155 36.7681 130.462 37.1452C130.779 37.5269 131.019 37.9721 131.164 38.4855C131.313 38.9989 131.399 39.4623 131.418 39.8712C131.442 40.2847 131.365 40.6345 131.25 40.9617C131.01 41.5977 130.4 42.0293 129.29 42.2656Z" fill="#0081B8"/>
<path d="M156.741 20.067C154.892 18.9039 154.118 16.7003 155.218 14.5195C155.463 14.0425 155.814 13.3837 156.246 12.8067C156.679 12.2479 157.193 11.7708 157.726 11.6436C158.903 11.3982 159.264 12.207 160.042 13.1156C161.56 14.9103 162.281 16.9957 161.036 18.7721C159.797 20.5758 158.605 21.2619 156.741 20.067Z" fill="#0081B8"/>
<path d="M117.426 51.452C117.479 50.4343 117.604 49.412 117.772 48.3898L117.906 47.6265L118.079 46.8678L118.43 45.3503C118.939 43.333 119.602 41.343 120.419 39.403C122.048 35.523 124.262 31.8383 126.934 28.4717L127.424 27.8311C127.592 27.6221 127.775 27.4222 127.947 27.2177L129.009 25.9956L129.547 25.3913C129.73 25.1914 129.927 25.0051 130.119 24.8143L131.272 23.6648L131.849 23.0924C132.041 22.9016 132.252 22.7289 132.454 22.5472L133.679 21.4659L134.294 20.9252C134.501 20.7435 134.722 20.5844 134.933 20.4118L136.225 19.3986C139.733 16.768 143.61 14.5645 147.718 12.8426C148.731 12.3882 149.808 12.0656 150.86 11.6885C151.907 11.3069 152.983 11.007 154.059 10.7117C156.212 10.1256 158.403 9.67584 160.603 9.33963C162.808 9.01705 165.018 8.79443 167.233 8.65358C168.338 8.58543 169.448 8.53091 170.553 8.5082C171.658 8.49911 172.763 8.49456 173.868 8.51274C176.073 8.54454 178.279 8.6445 180.469 8.80352C182.66 8.96253 184.865 9.16244 187.042 9.53954C189.213 9.91209 191.371 10.4664 193.369 11.3205C194.373 11.7431 195.32 12.2656 196.209 12.8426C197.093 13.4332 197.885 14.1192 198.606 14.8553L198.452 15.0097C197.679 14.3555 196.848 13.7603 195.949 13.2605C195.041 12.7744 194.099 12.3382 193.105 12.002C191.121 11.3205 189.021 10.9071 186.893 10.6572C184.76 10.3982 182.598 10.3028 180.421 10.2392C178.245 10.1756 176.073 10.1529 173.902 10.1892C169.558 10.2619 165.23 10.6027 160.978 11.316C158.849 11.6749 156.745 12.1293 154.679 12.7063C153.651 13.0016 152.618 13.2924 151.619 13.6695C150.615 14.0375 149.591 14.351 148.626 14.8007C140.727 18.0265 133.722 23.1742 128.322 29.5258C125.622 32.7016 123.321 36.1818 121.505 39.8801C120.597 41.7292 119.814 43.6329 119.165 45.5729L118.704 47.0359L118.473 47.7673L118.276 48.5079C118.022 49.4938 117.81 50.4888 117.652 51.4838L117.426 51.452Z" fill="#003F88"/>
<path d="M126.794 74.0148C125.761 71.9158 126.434 69.685 128.437 68.0221C129.336 67.2952 130.849 65.9095 131.887 65.9731C133.035 66.0548 133.088 67.0317 133.458 68.2902C134.183 70.7163 133.977 73.4378 131.757 74.8235C130.652 75.5141 129.653 75.8367 128.822 75.7231C127.986 75.6095 127.313 75.0598 126.794 74.0148Z" fill="#4DA7CD"/>
<path d="M136.313 29.3125C138.158 27.5406 140.675 27.5134 142.559 29.1399C143.394 29.8623 144.86 31.1162 144.821 32.1885C144.778 33.3697 143.836 33.5924 142.679 34.2421C140.43 35.5006 138.033 36.0912 136.433 34.4147C134.828 32.7428 134.468 31.0844 136.313 29.3125Z" fill="#4DA7CD"/>
<path d="M186.323 3.07004C188.946 3.2336 190.613 5.01914 190.546 7.42712C190.517 8.49935 190.469 10.3621 189.585 11.0391C188.614 11.7797 187.817 11.2526 186.539 10.8483C184.06 10.0623 182.023 8.73106 182.316 6.49119C182.609 4.25131 183.699 2.90648 186.323 3.07004Z" fill="#4DA7CD"/>
<path d="M133.672 38.2493C135.066 36.9136 136.959 36.8954 138.381 38.1175C139.01 38.6628 140.115 39.6032 140.086 40.4165C140.053 41.307 139.346 41.4751 138.472 41.9658C136.781 42.9153 134.974 43.3606 133.769 42.0975C132.553 40.8345 132.279 39.5805 133.672 38.2493Z" fill="#4DA7CD"/>
<path d="M142.759 22.7519C143.585 22.1386 144.488 21.8887 145.305 21.9977C146.127 22.1068 146.862 22.5702 147.414 23.3335C147.909 24.0104 148.788 25.1645 148.62 25.9777C148.438 26.8682 147.722 26.9273 146.79 27.2907C144.993 27.9813 143.167 28.1449 142.192 26.691C141.226 25.2235 141.121 23.965 142.759 22.7519Z" fill="#4DA7CD"/>
<path d="M196.954 3.54262C198.881 3.90608 199.895 5.39176 199.539 7.19093C199.38 7.99056 199.116 9.38537 198.372 9.81245C197.56 10.2804 197.031 9.81245 196.137 9.39446C194.398 8.5812 193.053 7.39992 193.553 5.74614C194.052 4.08782 195.028 3.17915 196.954 3.54262Z" fill="#4DA7CD"/>
<path d="M145.482 49.5303C142.787 49.8075 140.841 48.0219 140.577 45.1959C140.462 43.9374 140.245 41.7521 141.057 40.8025C141.941 39.7621 142.83 40.2346 144.185 40.4799C146.818 40.9525 149.076 42.1428 149.09 44.8143C149.105 47.4903 148.178 49.2532 145.482 49.5303Z" fill="#4DA7CD"/>
<path d="M149.228 12.1527C150.89 10.9986 152.707 10.5352 154.1 10.7079C155.508 10.876 156.454 11.6529 156.915 12.7705C157.343 13.7655 158.044 15.4784 157.516 16.487C157.372 16.7687 157.203 16.9732 157.011 17.1231C156.824 17.2866 156.608 17.4002 156.363 17.4911C156.113 17.5774 155.844 17.6637 155.541 17.7455C155.238 17.8273 154.912 17.9182 154.566 18.0499C153.225 18.5406 151.919 19.0086 150.746 19.1449C149.584 19.2812 148.512 19.0904 147.734 18.2317C146.97 17.373 146.528 16.4688 146.687 15.4557C146.725 15.2012 146.802 14.9423 146.912 14.6788C147.033 14.4107 147.196 14.1381 147.398 13.861C147.59 13.5838 147.854 13.2976 148.157 13.0113C148.31 12.8705 148.469 12.7251 148.642 12.5797C148.825 12.4434 149.022 12.298 149.228 12.1527Z" fill="#4DA7CD"/>
<path d="M138.645 67.863C137.602 68.4172 136.574 68.4309 135.695 68.0401C134.815 67.6494 134.071 66.8589 133.557 65.7776C133.095 64.8007 132.24 63.1924 132.514 62.2292C132.817 61.1615 133.658 61.2206 134.763 60.9252C136.91 60.3528 139.077 60.3392 140.028 62.5745C140.96 64.8053 140.725 66.7544 138.645 67.863Z" fill="#4DA7CD"/>
<path d="M175.501 5.08282C177.899 5.16914 179.479 6.74568 179.499 8.94012C179.508 9.91695 179.527 11.6116 178.744 12.2477C177.884 12.9474 177.14 12.4885 175.963 12.1477C173.676 11.498 171.773 10.3349 171.965 8.29042C172.157 6.24591 173.104 4.99649 175.501 5.08282Z" fill="#4DA7CD"/>
<path d="M172.453 21.9978C170.373 21.0392 169.772 19.0083 170.868 16.9865C171.353 16.0869 172.199 14.5195 173.212 14.2241C174.327 13.9016 174.755 14.5967 175.629 15.3373C177.32 16.7775 178.42 18.5403 177.214 20.3486C176.008 22.1614 174.534 22.9565 172.453 21.9978Z" fill="#4DA7CD"/>
<path d="M196.49 18.054C194.41 17.0953 193.809 15.0644 194.904 13.0427C195.39 12.1431 196.235 10.5756 197.249 10.2803C198.364 9.95772 198.791 10.6528 199.666 11.3934C201.357 12.8337 202.457 14.5965 201.251 16.4047C200.05 18.213 198.575 19.0126 196.49 18.054Z" fill="#4DA7CD"/>
<path d="M157.368 28.4952C156.311 28.5406 155.346 28.2453 154.616 27.6456C153.885 27.0504 153.376 26.1372 153.256 25.0105C153.203 24.5107 153.136 23.8156 153.198 23.1568C153.256 22.4934 153.438 21.8619 153.823 21.5121C154.241 21.1304 154.625 21.0668 155.029 21.1531C155.432 21.2395 155.855 21.4576 156.374 21.6756C158.397 22.5207 159.761 24.0336 159.862 25.7147C159.963 27.4275 159.492 28.4043 157.368 28.4952Z" fill="#4DA7CD"/>
<path d="M125.181 47.3955C126.329 45.3374 127.746 44.406 129.096 44.1016C130.456 43.8154 131.825 44.138 133.07 44.9467C134.179 45.6691 136.101 46.9276 136.231 48.1861C136.385 49.5718 135.323 49.9398 134.165 51.0575C133.046 52.1388 131.993 53.3246 130.888 54.0924C129.779 54.8648 128.578 55.2283 127.223 54.8103C125.882 54.3741 124.854 53.7335 124.374 52.575C124.133 51.998 124.037 51.2756 124.153 50.3896C124.263 49.4991 124.614 48.4087 125.181 47.3955Z" fill="#4DA7CD"/>
<path d="M163.81 4.90089C164.713 4.83728 165.477 4.93269 166.14 5.1326C166.803 5.33705 167.394 5.65055 167.894 6.05945C168.898 6.87271 169.551 8.05852 169.71 9.48059C169.854 10.7482 170.114 12.9472 169.172 13.8513C168.139 14.8463 167.116 14.3102 165.501 14.0103C163.93 13.7241 162.393 13.3379 161.129 12.7564C159.875 12.1657 158.866 11.3661 158.689 10.0213C158.511 8.68096 158.79 7.48606 159.669 6.56376C160.529 5.65055 161.994 5.02356 163.81 4.90089Z" fill="#4DA7CD"/>
<path d="M153.845 38.8716C151.005 39.803 148.478 38.4309 147.512 35.5776C147.08 34.31 146.326 32.1065 146.969 30.9343C147.676 29.6531 148.742 29.9257 150.265 29.853C153.22 29.7122 155.915 30.4391 156.598 33.147C157.256 35.8957 156.684 37.9402 153.845 38.8716Z" fill="#4DA7CD"/>
<path d="M183.146 21.5796C180.763 19.9076 180.58 17.1543 182.55 14.7645C183.429 13.7014 184.948 11.8477 186.331 11.6751C187.849 11.4842 188.195 12.4747 189.099 13.6151C190.852 15.8277 191.751 18.3356 189.694 20.4301C187.643 22.5201 185.529 23.2515 183.146 21.5796Z" fill="#4DA7CD"/>
<path d="M124.159 59.2808C124.332 58.7719 124.577 58.3267 124.913 57.9451C125.24 57.5589 125.644 57.2045 126.105 56.9183C127.032 56.3458 128.2 56.0959 129.449 56.3185C130.559 56.5139 132.495 56.841 133.043 57.7679C133.643 58.7856 132.951 59.4671 132.255 60.562C131.577 61.6252 130.751 62.5248 129.819 63.0336C128.887 63.547 127.854 63.6742 126.754 63.2653C125.653 62.8564 124.822 62.3521 124.371 61.7115C123.909 61.0709 123.818 60.294 124.159 59.2808Z" fill="#4DA7CD"/>
<path d="M142.27 55.8858C141.318 56.272 140.237 56.5082 139.19 56.322C138.147 56.1493 137.119 55.595 136.351 54.6591C136.009 54.2411 135.553 53.655 135.255 53.0189C134.957 52.3874 134.832 51.6923 135.058 51.1971C135.563 50.1112 136.485 50.3429 137.72 50.3475C138.931 50.3565 140.084 50.5655 141.006 51.0335C141.933 51.4969 142.601 52.2466 142.986 53.1871C143.384 54.1139 143.653 54.7227 143.634 55.0362C143.62 55.1998 143.528 55.2815 143.307 55.4178C143.086 55.5541 142.745 55.7041 142.27 55.8858Z" fill="#4DA7CD"/>
<path d="M162.949 24.8921C162.233 24.3287 161.459 23.629 160.912 22.7658C160.638 22.3341 160.426 21.8662 160.311 21.3528C160.196 20.8394 160.181 20.2896 160.316 19.7263C160.436 19.231 160.647 18.5268 161.017 17.918C161.382 17.3092 161.882 16.7822 162.435 16.6322C163.65 16.3051 164.054 17.1184 164.866 18.0089C165.654 18.8766 166.254 19.8444 166.48 20.8076C166.715 21.7753 166.557 22.743 165.99 23.6426C165.433 24.5468 164.991 25.1601 164.553 25.3873C164.111 25.6235 163.674 25.46 162.949 24.8921Z" fill="#4DA7CD"/>
<path d="M131.216 68.5216C131.72 66.359 132.109 64.1827 132.378 62.0064C132.508 60.916 132.609 59.8256 132.686 58.7398C132.758 57.6494 132.801 56.5544 132.907 55.4504C133.013 54.3463 133.176 53.2332 133.493 52.1337C133.81 51.0342 134.271 49.9802 134.79 48.9715C135.309 47.9629 135.876 46.9952 136.438 46.0365L138.129 43.1697L139.821 40.3028L141.545 37.4541L145 31.7613C146.172 29.8667 147.33 27.9949 148.536 26.0957C149.751 24.2012 151.053 22.302 152.644 20.5483C153.451 19.6851 154.33 18.8582 155.3 18.1131C156.271 17.368 157.337 16.7183 158.466 16.1867C160.734 15.1281 163.132 14.6101 165.447 14.2194C167.768 13.8559 170.035 13.547 172.327 13.2062L175.758 12.7156L179.198 12.2567C188.364 11.0209 197.555 9.91231 206.809 9.15356L206.847 9.36256L179.5 13.9059L165.841 16.1867C163.602 16.5956 161.402 17.109 159.447 18.0449C157.491 18.9672 155.795 20.3484 154.339 21.9477C152.869 23.5424 151.611 25.337 150.405 27.1816L146.821 32.7927L139.652 44.0375L137.86 46.8498C137.265 47.7903 136.669 48.7126 136.136 49.6531C135.602 50.5935 135.136 51.5476 134.8 52.5335C134.464 53.5194 134.252 54.5553 134.089 55.6139C133.93 56.6725 133.82 57.7584 133.676 58.8579C133.527 59.9574 133.349 61.0523 133.138 62.1427C132.705 64.3236 132.138 66.4771 131.432 68.5898L131.216 68.5216Z" fill="#4DA7CD"/>
<path d="M222.279 73.3683C221.967 72.973 221.751 72.6141 221.635 72.2915C221.506 71.9644 221.438 71.6555 221.491 71.3874C221.515 71.2511 221.563 71.1239 221.635 71.0012C221.693 70.874 221.775 70.7513 221.885 70.6332C222.097 70.397 222.443 70.188 222.832 69.9699C223.182 69.7791 223.668 69.4928 224.201 69.2384C224.725 68.984 225.263 68.7477 225.786 68.7523C226.358 68.7523 226.699 68.9022 226.983 69.1657C227.122 69.2975 227.252 69.4519 227.372 69.6291C227.487 69.8109 227.612 70.0017 227.751 70.2152C228.025 70.6287 228.265 71.0694 228.41 71.5101C228.539 71.9508 228.597 72.4006 228.563 72.8231C228.544 73.2502 228.366 73.6409 228.112 73.9862C227.843 74.3224 227.511 74.6177 226.992 74.7949C225.983 75.1539 225.099 75.2084 224.331 74.9585C223.562 74.7131 222.904 74.1634 222.279 73.3683Z" fill="#0081B8"/>
<path d="M210.14 55.9443C209.79 54.6903 210.823 52.7957 212.821 51.3555C213.71 50.7194 215.276 49.6063 216.079 49.6653C216.953 49.738 216.746 50.4559 216.694 51.3509C216.674 51.7825 216.612 52.2142 216.501 52.6322C216.381 53.0547 216.208 53.4636 215.973 53.8543C215.507 54.6267 214.791 55.3036 213.777 55.8352C212.768 56.3713 211.932 56.703 211.322 56.7575C210.707 56.8075 210.308 56.5758 210.14 55.9443Z" fill="#0081B8"/>
<path d="M187.728 32.3194C187.497 31.3472 187.742 30.4112 188.376 29.6298C189.001 28.8529 189.986 28.2622 191.182 27.8851C192.253 27.5535 194.089 26.9492 194.853 27.2127C195.722 27.4853 195.299 28.1486 195.151 29.0619C195.002 29.9478 194.728 30.8565 194.252 31.647C193.767 32.4421 193.056 33.1418 191.98 33.5643C190.903 33.9869 189.967 34.1641 189.227 33.9959C188.506 33.8051 187.958 33.2872 187.728 32.3194Z" fill="#0081B8"/>
<path d="M214.906 57.789C214.853 56.8849 215.814 55.5719 217.462 54.6859C218.192 54.2952 219.489 53.6092 220.075 53.7409C220.719 53.8818 220.469 54.4043 220.34 55.054C220.196 55.6946 219.931 56.3125 219.489 56.8304C219.052 57.3483 218.418 57.7754 217.606 58.0571C216.794 58.3388 216.121 58.5024 215.66 58.4796C215.194 58.4569 214.959 58.2388 214.906 57.789Z" fill="#0081B8"/>
<path d="M208.206 51.4239C207.975 50.2699 208.845 48.7978 210.382 47.8165C211.064 47.3803 212.256 46.6216 212.823 46.7261C213.438 46.8442 213.222 47.4121 213.14 48.1254C212.972 49.5248 212.338 50.9014 210.863 51.6783C209.378 52.4552 208.427 52.5779 208.206 51.4239Z" fill="#0081B8"/>
<path d="M186.536 24.3503C186.665 23.5961 187.117 23.0009 187.799 22.6011C188.467 22.2058 189.332 22.0196 190.264 22.0286C190.682 22.0332 191.244 22.0332 191.763 22.0695C192.287 22.1059 192.762 22.1831 192.983 22.3648C193.473 22.7601 192.978 23.1554 192.608 23.796C192.239 24.4139 191.777 25.0318 191.215 25.5043C190.653 25.9768 189.966 26.3176 189.092 26.3585C188.217 26.3993 187.535 26.2721 187.074 25.9541C186.848 25.7951 186.675 25.5815 186.579 25.318C186.478 25.0545 186.468 24.7274 186.536 24.3503Z" fill="#0081B8"/>
<path d="M230.227 52.1011C229.573 53.1234 228.579 53.7776 227.469 54.1183C226.354 54.4591 225.153 54.4818 223.986 54.2456C223.462 54.1411 222.76 54.0138 222.16 53.8367C221.54 53.6686 221.031 53.4505 220.887 53.0961C220.555 52.3328 221.358 51.7603 222.222 50.7926C223.889 48.9253 225.85 47.3124 228.122 47.9076C230.419 48.5982 231.543 50.0566 230.227 52.1011Z" fill="#0081B8"/>
<path d="M202.63 49.1435C201.66 47.9214 202.217 45.8859 203.98 44.1549C204.764 43.3871 206.123 42.0423 206.974 41.9287C207.906 41.7969 207.862 42.5193 208.103 43.3553C208.573 44.9773 208.434 46.7946 206.7 48.303C204.965 49.8114 203.591 50.3612 202.63 49.1435Z" fill="#0081B8"/>
<path d="M232.771 69.6701C231.858 70.1699 230.849 70.2198 229.917 69.979C228.99 69.7382 228.096 69.2112 227.39 68.5433C227.231 68.398 227.049 68.2208 226.852 68.039C226.655 67.8573 226.439 67.6665 226.256 67.4802C225.886 67.1031 225.622 66.7396 225.66 66.4352C225.723 65.7628 226.559 65.681 227.587 65.3221C229.581 64.627 231.685 64.1454 233.088 65.5947C233.804 66.3126 234.159 67.0895 234.15 67.8028C234.154 68.4979 233.684 69.1703 232.771 69.6701Z" fill="#0081B8"/>
<path d="M192.702 38.552C191.986 36.9982 192.976 35.2217 194.955 34.1041C195.829 33.6043 197.348 32.7184 198.102 32.8092C198.928 32.9137 198.702 33.5634 198.741 34.3949C198.765 35.2081 198.688 36.0395 198.376 36.8119C198.063 37.5843 197.53 38.3021 196.632 38.8473C194.844 39.9332 193.418 40.0831 192.702 38.552Z" fill="#0081B8"/>
<path d="M207.895 30.3469C207.597 31.9052 206.17 33.5045 204.2 34.2087C203.34 34.5177 201.789 35.0447 201.26 34.6767C200.679 34.2769 201.145 33.6499 201.558 32.7685C202.36 31.0556 203.681 29.57 205.469 29.102C206.353 28.8657 207.04 28.7885 207.463 28.9657C207.876 29.1383 208.039 29.5654 207.895 30.3469Z" fill="#0081B8"/>
<path d="M201.34 21.3832C200.36 22.5191 198.443 23.5731 196.344 23.5731C195.878 23.5731 195.258 23.5549 194.691 23.4641C194.134 23.3732 193.624 23.2097 193.466 22.9416C193.125 22.3464 193.836 21.9602 194.614 21.3696C195.388 20.788 196.262 20.3337 197.16 20.0656C198.059 19.793 198.986 19.7067 199.87 19.8021C201.648 19.9975 202.335 20.2474 201.34 21.3832Z" fill="#0081B8"/>
<path d="M217.663 39.5969C217.197 41.4006 215.496 42.7455 213.579 43.0862C212.724 43.2361 211.249 43.5178 210.826 43.0499C210.37 42.5319 210.889 41.914 211.379 40.9963C212.325 39.2153 213.642 37.6296 215.395 37.4434C216.279 37.357 216.957 37.4434 217.36 37.7796C217.769 38.1203 217.898 38.7019 217.663 39.5969Z" fill="#0081B8"/>
<path d="M214.588 62.8412C214.598 62.5504 214.689 62.2369 214.91 61.9098C215.131 61.5782 215.439 61.2329 215.828 60.8876C216.611 60.1879 217.74 59.461 219.128 58.893C220.363 58.3933 222.506 57.5073 223.496 57.7845C224.043 57.9344 224.192 58.2206 224.178 58.5795C224.159 58.943 224.005 59.3746 223.851 59.8744C223.707 60.356 223.515 60.8194 223.26 61.242C222.986 61.669 222.65 62.0598 222.251 62.3914C221.459 63.0593 220.358 63.4864 218.975 63.6681C217.601 63.8544 216.467 63.9134 215.717 63.8089C215.338 63.7544 215.064 63.659 214.872 63.5045C214.68 63.3501 214.579 63.1365 214.588 62.8412Z" fill="#0081B8"/>
<path d="M196.632 45.4727C196.315 45.0547 196.133 44.6004 196.051 44.0915C195.969 43.5827 196.012 43.0511 196.166 42.515C196.474 41.4473 197.247 40.3569 198.371 39.4073C199.375 38.5577 201.115 37.0902 202.143 37.013C203.267 36.9312 203.157 37.7854 203.416 38.8031C203.911 40.7749 203.786 42.983 201.701 44.764C199.611 46.5404 197.886 47.122 196.632 45.4727Z" fill="#0081B8"/>
<path d="M225.137 43.1046C224.978 44.2949 224.32 45.3581 223.373 46.1486C222.422 46.9483 221.192 47.4935 219.857 47.7661C219.261 47.8887 218.449 48.0659 217.719 48.1523C216.984 48.2386 216.316 48.2477 215.999 47.9841C215.292 47.4162 215.917 46.5984 216.436 45.3899C217.435 43.0637 218.9 40.8511 221.384 40.4149C223.873 40.006 225.454 40.6921 225.137 43.1046Z" fill="#0081B8"/>
<path d="M205.529 25.6949C204.371 27.6258 202.074 29.3023 199.509 29.4568C198.937 29.4932 198.173 29.5204 197.472 29.4432C196.765 29.375 196.17 29.1751 195.968 28.8207C195.516 28.0438 196.434 27.4214 197.404 26.4855C199.302 24.6545 201.733 23.4051 203.823 23.3869C204.337 23.3823 204.789 23.4005 205.139 23.4687C205.495 23.5323 205.735 23.6413 205.894 23.8094C206.225 24.1456 206.091 24.7317 205.529 25.6949Z" fill="#0081B8"/>
<path d="M216.863 65.9854C216.955 65.7674 217.084 65.5402 217.339 65.3267C217.584 65.1086 217.925 64.8996 218.329 64.6997C219.112 64.2953 220.193 63.9319 221.447 63.7501C222.561 63.5911 224.507 63.3049 225.252 63.7274C225.646 63.9591 225.708 64.2226 225.617 64.5089C225.526 64.7996 225.3 65.1131 225.055 65.4857C224.829 65.8446 224.565 66.1763 224.262 66.467C223.945 66.7533 223.575 66.9941 223.171 67.1713C222.364 67.5347 221.394 67.6438 220.226 67.4938C219.059 67.3485 218.136 67.1667 217.555 66.935C217.262 66.8169 217.07 66.6988 216.945 66.5397C216.82 66.3853 216.786 66.2035 216.863 65.9854Z" fill="#0081B8"/>
<path d="M233.415 59.6154C232.766 60.4969 231.815 61.0057 230.763 61.1874C229.725 61.3692 228.577 61.2465 227.5 60.883C227.015 60.724 226.386 60.5105 225.804 60.2879C225.233 60.0607 224.757 59.8063 224.647 59.4791C224.373 58.7749 225.17 58.3797 226.049 57.6209C226.9 56.8849 227.793 56.2079 228.74 55.7945C229.691 55.3856 230.71 55.2356 231.733 55.6355C232.247 55.8354 232.699 56.0671 233.059 56.3306C233.419 56.5987 233.674 56.9121 233.837 57.2438C234.001 57.58 234.063 57.9435 234.001 58.3388C233.933 58.7522 233.741 59.1747 233.415 59.6154Z" fill="#0081B8"/>
<path d="M213.625 34.3403C213.269 36.2349 211.592 37.916 209.479 38.5248C208.537 38.7974 206.903 39.2653 206.375 38.8155C205.798 38.3203 206.336 37.6161 206.812 36.612C207.735 34.6629 209.137 32.9183 211.035 32.5003C211.982 32.2913 212.717 32.2731 213.173 32.5503C213.625 32.8274 213.803 33.3953 213.625 34.3403Z" fill="#0081B8"/>
<path d="M225.611 70.3652L225.674 69.3384L225.654 68.3161C225.659 67.9799 225.621 67.6437 225.587 67.3075C225.549 66.9713 225.539 66.6396 225.477 66.308C225.284 64.9858 224.958 63.7001 224.559 62.4507C223.704 59.9654 222.527 57.6074 221.023 55.4675C220.658 54.9268 220.249 54.4134 219.846 53.9046C219.658 53.6411 219.428 53.3957 219.226 53.1413C219.015 52.8869 218.808 52.6325 218.582 52.3871C217.718 51.3921 216.776 50.4471 215.82 49.5203C213.908 47.662 211.875 45.8856 209.776 44.1455C207.729 42.3554 205.601 40.6016 203.583 38.7071C202.579 37.7575 201.599 36.7625 200.647 35.7539C200.186 35.2314 199.701 34.7362 199.269 34.191L198.615 33.3822L197.986 32.5554C197.159 31.4468 196.376 30.3064 195.704 29.1024C195.348 28.5118 195.055 27.8893 194.748 27.2805C194.599 26.9716 194.474 26.6535 194.334 26.34C194.195 26.0266 194.065 25.7131 193.96 25.3905C193.47 24.1229 193.157 22.7962 192.951 21.4787C192.754 20.1565 192.754 18.8208 192.869 17.5259L193.095 17.5168C193.181 18.789 193.354 20.0611 193.695 21.3015C194.046 22.5373 194.469 23.764 195.045 24.9316C195.175 25.2269 195.324 25.5177 195.483 25.8039C195.641 26.0902 195.785 26.3809 195.949 26.6672C196.29 27.226 196.612 27.7985 196.991 28.3391C197.712 29.4432 198.529 30.4927 199.379 31.5149C202.79 35.6221 207.095 39.0024 211.284 42.5507C213.374 44.3363 215.44 46.1673 217.376 48.1436C219.293 50.1336 221.109 52.2372 222.556 54.6088C224.016 56.9577 225.083 59.5293 225.726 62.1962C226.02 63.5365 226.217 64.9041 226.245 66.2807C226.265 66.626 226.236 66.9713 226.231 67.3166C226.221 67.6619 226.217 68.0072 226.164 68.3479L226.044 69.3793L225.832 70.4015L225.611 70.3652Z" fill="#003F88"/>
</g>
<path d="M89.7072 340.79C124.085 340.79 151.953 335.042 151.953 327.951C151.953 320.86 124.085 315.111 89.7072 315.111C55.3297 315.111 27.4612 320.86 27.4612 327.951C27.4612 335.042 55.3297 340.79 89.7072 340.79Z" fill="#666666"/>
<path d="M130.508 237.36C118.569 221.986 118.569 201.781 130.508 186.407L147.67 164.308C171.033 134.222 146.416 93.5132 104.857 93.5132H92.6974H80.5374C38.9792 93.5132 14.3614 134.222 37.7253 164.308L54.8867 186.407C66.8256 201.781 66.8256 221.986 54.8867 237.36L37.7253 259.459C14.3614 289.545 38.9792 330.254 80.5374 330.254H92.6974H104.857C146.416 330.254 171.033 289.545 147.67 259.459L130.508 237.36Z" fill="#B3B3B3"/>
<path d="M97.9302 263.435C96.633 256.17 93.0825 231.673 97.9157 217.07C101.212 207.116 112.603 205.844 114.789 201.75C115.687 199.01 116.96 196.366 118.608 193.899L120.127 191.632C108.779 187.229 96.8684 191.296 81.7921 187.448C64.2128 182.959 63.8524 170.396 45.6869 162.359L50.3809 169.374L66.7879 193.899C68.4359 196.362 69.7042 199.001 70.6074 201.736C70.6074 201.741 70.6123 201.746 70.6123 201.75C73.1922 206.748 83.147 214.435 85.6981 222.863C90.6371 239.187 86.9809 258.301 82.6665 266.107C76.1421 277.91 58.7742 271.491 36.1886 282.095C34.2236 299.973 47.7096 317.656 67.5374 317.656H92.6982H117.859C137.692 317.656 151.178 299.959 149.203 282.077C125.704 269.201 100.102 275.62 97.9302 263.435Z" fill="#FCAF17"/>
<path opacity="0.1" d="M80.5331 330.259H92.6931H104.853C146.411 330.259 171.029 289.551 147.665 259.464L130.504 237.366C118.565 221.991 118.565 201.787 130.504 186.412L147.665 164.313C171.029 134.227 146.411 93.5183 104.853 93.5183H92.6931H80.5331C80.5283 93.5183 80.5235 93.5183 80.5139 93.5183C104.964 93.5319 151.307 100.179 143.682 146.203C136.538 189.338 104.565 190.655 109.081 219.301C113.592 247.947 150.077 264.412 143.682 292.399C137.288 320.386 103.815 328.287 80.4947 326.974C64.3566 326.061 46.7821 318.846 35.4917 307.283C44.1204 320.627 60.3209 330.259 80.5331 330.259Z" fill="#303030"/>
<path opacity="0.1" d="M37.7225 164.308L54.8839 186.407C66.8229 201.781 66.8229 221.986 54.8839 237.36L37.7225 259.459C33.1199 265.384 30.3862 271.722 29.2716 278.083C30.7513 274.88 32.7307 271.318 35.3635 267.365C52.6642 241.354 98.1765 244.403 59.4337 189.328C33.7445 152.809 31.9764 133.358 44.4679 106.271C27.6284 120.705 22.5358 144.749 37.7225 164.308Z" fill="#303030"/>
<path d="M89.7072 118.206C124.085 118.206 151.953 112.457 151.953 105.366C151.953 98.2753 124.085 92.5269 89.7072 92.5269C55.3297 92.5269 27.4612 98.2753 27.4612 105.366C27.4612 112.457 55.3297 118.206 89.7072 118.206Z" fill="#666666"/>
<path opacity="0.3" d="M67.3271 192.471C57.1706 177.533 37.9913 155.125 44.3812 131.65C44.5157 131.159 44.6503 130.686 44.7944 130.227C48.1671 119.333 65.5062 123.68 62.7917 134.744C61.3648 140.55 60.2454 147.519 60.5529 154.416C61.3072 171.131 77.4837 207.41 67.3271 192.471Z" fill="white"/>
<path d="M220.082 344.684C214.499 351.69 209.623 355.239 205.424 353.203C201.225 351.168 202.589 344.839 206.289 338.001C209.988 331.168 215.307 329.282 219.506 331.318C223.705 333.353 224.963 338.551 220.082 344.684Z" fill="#333333"/>
<path d="M210.25 337.56L200.564 327.46C198.455 325.257 198.628 321.854 200.958 319.859C203.288 317.864 206.887 318.028 208.996 320.232C209.332 320.581 209.62 320.986 209.841 321.386L216.433 333.507C217.389 335.27 216.659 337.433 214.795 338.337C213.233 339.1 211.374 338.732 210.25 337.56Z" fill="#FCA98A"/>
<path d="M149.405 346.315C140.699 343.289 135.693 339.899 136.539 335.511C137.384 331.122 144.187 330.522 152.177 331.899C160.167 333.271 163.612 337.541 162.766 341.93C161.92 346.319 157.03 348.963 149.405 346.315Z" fill="#333333"/>
<path d="M153.774 335.352L161.192 323.662C162.811 321.113 166.304 320.286 168.999 321.817C171.694 323.348 172.569 326.651 170.95 329.2C170.695 329.605 170.368 329.986 170.027 330.3L159.664 339.773C158.156 341.149 155.758 341.113 154.298 339.686C153.082 338.501 152.914 336.71 153.774 335.352Z" fill="#FCA98A"/>
<path d="M295.257 272.858C297.136 287.083 301.652 318.387 273.44 324.788C245.229 331.19 227.553 325.856 217.776 316.965C207.999 308.073 206.116 307.006 206.116 307.006L212.886 323.012C212.886 323.012 207.62 331.549 202.729 331.549C197.838 331.549 189.19 320.522 189.19 320.522L170.006 334.039C170.006 334.039 159.1 332.617 156.842 325.502C156.842 325.502 165.87 307.36 173.393 296.692C173.393 296.692 156.093 265.748 160.604 251.522C165.115 237.297 179.408 230.891 194.831 234.448C210.253 238.006 214.389 246.184 214.389 246.184C214.389 246.184 221.533 238.001 232.819 238.001C244.105 238.001 261.405 245.825 274.944 256.497C288.488 267.17 295.257 272.858 295.257 272.858Z" fill="#005D99"/>
<path d="M311.43 211.682C306.165 201.723 295.633 187.852 287.36 186.784C287.36 186.784 269.305 170.069 238.84 181.091C237.754 181.482 236.722 181.936 235.727 182.436C227.108 185.921 208.539 194.571 201.981 206.702C198.032 214.012 206.055 214.844 215.938 213.59C212.594 230.037 214.391 246.184 214.391 246.184C214.391 246.184 229.058 234.09 245.682 241.631C264.347 250.1 297.517 294.203 315.946 276.774C334.376 259.341 316.696 221.641 311.43 211.682Z" fill="white"/>
<path d="M239.616 239.638L253.626 234.635L179.393 228.997L178.85 235.062L239.616 239.638Z" fill="#333333"/>
<path d="M280.782 188.029C281.7 187.288 282.8 186.757 283.973 186.434C284.564 186.289 285.174 186.193 285.789 186.203C286.404 186.221 287.014 186.352 287.552 186.607C286.961 186.489 286.375 186.457 285.793 186.484C285.212 186.53 284.636 186.634 284.074 186.78C283.507 186.925 282.954 187.12 282.406 187.329C281.863 187.543 281.316 187.77 280.782 188.029Z" fill="#8F9E9D"/>
<path d="M276.266 191.94C275.296 192.794 274.566 193.857 273.936 194.948C273.648 195.511 273.345 196.066 273.129 196.652C272.87 197.224 272.697 197.828 272.509 198.424C271.794 200.822 271.582 203.335 271.693 205.82L271.726 206.752C271.741 207.06 271.794 207.369 271.827 207.678L272.048 209.537L272.408 211.372L272.586 212.29L272.831 213.194L273.326 215.002C273.485 215.607 273.71 216.197 273.898 216.792L274.489 218.578L275.137 220.345C275.988 222.712 276.958 225.034 277.958 227.347C278.476 228.496 278.991 229.646 279.533 230.786C280.086 231.922 280.619 233.062 281.196 234.189C282.32 236.451 283.521 238.678 284.765 240.881C286.005 243.089 287.288 245.279 288.671 247.41C285.822 243.194 283.257 238.805 280.936 234.307C278.601 229.814 276.535 225.188 274.782 220.463L274.138 218.687L273.552 216.892C273.365 216.293 273.144 215.702 272.985 215.089L272.495 213.262L272.25 212.349L272.072 211.422L271.717 209.568C271.64 208.946 271.572 208.319 271.505 207.697C271.476 207.383 271.428 207.074 271.419 206.761L271.395 205.82C271.318 203.312 271.558 200.777 272.322 198.369C272.529 197.769 272.716 197.17 272.99 196.597C273.225 196.011 273.542 195.457 273.845 194.898C274.518 193.821 275.277 192.772 276.266 191.94Z" fill="#8F9E9D"/>
<path d="M240.718 180.446C239.166 181.296 237.812 182.295 236.538 183.327C235.909 183.849 235.26 184.358 234.694 184.912L233.814 185.73L233.377 186.139L232.974 186.562L231.35 188.256C230.831 188.829 230.36 189.424 229.865 190.006C228.837 191.16 228.03 192.391 227.131 193.59C223.725 198.456 221.241 203.595 219.343 208.82L218.637 210.782C218.402 211.437 218.147 212.086 217.989 212.75L216.884 216.716L216.61 217.706C216.518 218.038 216.47 218.374 216.394 218.706L215.99 220.705L215.586 222.704C215.461 223.372 215.284 224.035 215.197 224.708L214.659 228.729C214.501 230.069 214.217 231.409 214.28 232.759L214.155 240.846L214.03 232.759C213.938 231.409 214.203 230.064 214.337 228.719L214.808 224.685C215.01 223.345 215.298 222.009 215.553 220.669L215.947 218.66C216.019 218.329 216.062 217.988 216.158 217.656L216.427 216.661L217.513 212.677C217.672 212.009 217.921 211.355 218.152 210.7L218.849 208.729C220.794 203.495 223.278 198.333 226.781 193.468C227.703 192.268 228.534 191.037 229.586 189.887C230.096 189.306 230.581 188.715 231.109 188.143L232.772 186.457L233.19 186.039L233.641 185.635L234.549 184.831C235.136 184.285 235.799 183.777 236.447 183.263C237.754 182.25 239.142 181.273 240.718 180.446Z" fill="#8F9E9D"/>
<path d="M254.64 231.245C252.089 227.111 244.863 227.688 242.605 228.042C240.347 228.397 237.34 231.245 237.34 231.245L238.843 235.871L249.375 238.715C249.375 238.715 259.906 239.778 254.64 231.245Z" fill="#FCA98A"/>
<path d="M248.404 238.451C248.74 239.006 249.096 239.551 249.47 240.082C249.84 240.619 250.21 241.15 250.609 241.664C251.397 242.699 252.209 243.717 253.064 244.703C253.924 245.684 254.803 246.657 255.726 247.588C256.634 248.533 257.599 249.428 258.556 250.337C258.032 249.932 257.508 249.524 256.999 249.101C256.504 248.665 255.995 248.238 255.519 247.779C254.544 246.884 253.65 245.916 252.776 244.93C251.921 243.931 251.109 242.899 250.374 241.818C249.639 240.741 248.947 239.628 248.404 238.451Z" fill="#8F9E9D"/>
<path d="M255.576 230.355C258.117 230.623 260.635 231.064 263.128 231.582C265.627 232.109 268.096 232.749 270.532 233.49C272.953 234.271 275.351 235.139 277.657 236.193C279.948 237.275 282.163 238.515 284.162 240.023L282.567 239.019L282.168 238.769C282.034 238.688 281.889 238.619 281.755 238.542L280.924 238.097L280.097 237.647C279.824 237.497 279.53 237.374 279.247 237.238C278.675 236.975 278.113 236.693 277.532 236.443C275.211 235.444 272.833 234.585 270.417 233.831C268 233.067 265.54 232.431 263.066 231.854C261.831 231.559 260.587 231.295 259.338 231.05C258.088 230.782 256.834 230.559 255.576 230.355Z" fill="#8F9E9D"/>
<path d="M189.005 320.34C191.09 318.814 193.127 317.237 195.15 315.638C197.177 314.043 199.181 312.426 201.155 310.776C205.109 307.487 208.977 304.098 212.676 300.554C214.526 298.782 216.352 296.992 218.105 295.134C219.859 293.275 221.555 291.372 223.179 289.414C224.788 287.446 226.311 285.415 227.68 283.289C229.054 281.172 230.28 278.95 231.135 276.588C230.342 278.968 229.165 281.222 227.839 283.38C226.499 285.529 224.995 287.587 223.409 289.582C220.205 293.553 216.645 297.251 212.945 300.804C209.217 304.334 205.345 307.728 201.347 310.981C199.349 312.607 197.321 314.202 195.27 315.77C193.204 317.328 191.124 318.859 189.005 320.34Z" fill="#333333"/>
<path d="M249.936 309.673C249.201 309.655 248.471 309.514 247.765 309.323C247.404 309.241 247.063 309.109 246.713 309C246.371 308.873 246.026 308.741 245.689 308.605C244.344 308.033 243.08 307.292 241.894 306.465C239.501 304.821 237.469 302.762 235.624 300.591C233.813 298.401 232.078 296.147 230.483 293.812C228.883 291.481 227.365 289.096 226.03 286.62C226.765 287.824 227.524 289.01 228.312 290.177C229.09 291.354 229.892 292.513 230.723 293.658C232.367 295.952 234.091 298.201 235.917 300.364C236.364 300.913 236.849 301.427 237.315 301.963C237.786 302.494 238.305 302.981 238.795 303.489C239.314 303.976 239.837 304.457 240.38 304.921C240.938 305.366 241.476 305.834 242.067 306.238C243.22 307.083 244.45 307.842 245.766 308.442C246.093 308.592 246.429 308.728 246.765 308.869C247.106 308.987 247.443 309.128 247.794 309.223C248.49 309.446 249.206 309.618 249.936 309.673Z" fill="#333333"/>
<path d="M174.33 265.566L176.665 269.951C177.452 271.404 178.236 272.863 179.072 274.294C179.879 275.739 180.724 277.161 181.613 278.56C181.829 278.915 182.05 279.264 182.286 279.605C182.521 279.946 182.737 280.3 182.987 280.636L183.713 281.654L184.486 282.64C183.304 281.436 182.315 280.082 181.368 278.706C180.422 277.329 179.576 275.898 178.74 274.462C177.928 273.013 177.14 271.554 176.405 270.069C175.675 268.588 174.969 267.093 174.33 265.566Z" fill="#333333"/>
<path opacity="0.4" d="M245.681 241.627C229.057 234.085 214.389 246.18 214.389 246.18C214.389 246.18 214.332 246.062 214.207 245.862C205.544 254.885 194.033 268.065 181.667 285.502C177.371 291.554 173.629 296.761 170.367 301.236C163.65 311.822 156.847 325.498 156.847 325.498C157.087 326.261 157.438 326.956 157.856 327.597C157.986 327.374 176.857 294.28 198.972 271.595C221.164 248.833 230.503 239.265 252.911 246.003H252.916C250.331 244.153 247.9 242.636 245.681 241.627Z" fill="white"/>
<path d="M214.206 246.002C212.236 247.929 210.362 249.937 208.522 251.977C206.682 254.012 204.885 256.08 203.136 258.188C199.644 262.404 196.271 266.707 192.946 271.045C189.602 275.371 186.321 279.741 183.039 284.108L173.205 297.224L177.976 290.568L182.804 283.949C186.042 279.551 189.319 275.18 192.644 270.836C195.992 266.511 199.365 262.204 202.911 258.015C206.471 253.849 210.189 249.787 214.206 246.002Z" fill="#333333"/>
<path d="M166.113 192.123L231.722 197.112L239.414 239.801L173.805 234.817L166.113 192.123Z" fill="#333333"/>
<path d="M254.641 177.329C252.455 177.302 250.235 177.552 248.208 178.338C247.204 178.747 246.267 179.306 245.465 180.001C244.653 180.691 244.014 181.55 243.528 182.472C242.558 184.322 242.188 186.416 242.202 188.465C242.222 189.492 242.38 190.519 242.707 191.495C242.861 191.986 243.072 192.459 243.322 192.908C243.572 193.354 243.869 193.799 244.22 194.153L244.023 194.144L252.272 187.715L252.407 187.611L252.527 187.734L259.657 195.221L259.445 195.198C261.3 193.899 262.957 192.277 264.159 190.396C264.754 189.451 265.215 188.433 265.475 187.361C265.595 186.825 265.667 186.275 265.682 185.73C265.682 185.18 265.643 184.63 265.523 184.09C265.302 183.013 264.812 181.977 264.082 181.118C263.356 180.251 262.405 179.569 261.386 179.033C259.311 177.979 256.971 177.461 254.641 177.329ZM254.641 177.329C256.976 177.447 259.316 177.952 261.396 178.992C262.424 179.519 263.38 180.205 264.125 181.073C264.879 181.927 265.388 182.972 265.633 184.063C265.763 184.608 265.811 185.167 265.821 185.725C265.816 186.284 265.749 186.843 265.633 187.393C265.388 188.488 264.932 189.533 264.341 190.501C263.145 192.431 261.511 194.09 259.623 195.448L259.513 195.53L259.412 195.426L252.248 187.97L252.503 187.988L244.206 194.362L244.095 194.444L244.009 194.349C243.62 193.94 243.336 193.495 243.082 193.022C242.832 192.55 242.625 192.063 242.471 191.559C242.154 190.555 242.01 189.506 242.005 188.465C242.02 186.384 242.428 184.281 243.442 182.427C243.942 181.5 244.605 180.651 245.431 179.96C246.248 179.265 247.189 178.71 248.198 178.302C250.235 177.529 252.455 177.288 254.641 177.329Z" fill="#8F9E9D"/>
<path d="M270.435 140.187C272.693 129.874 268.177 121.691 262.912 119.202C257.646 116.712 252.005 118.488 249.747 119.202C247.489 119.915 238.841 116.712 236.583 125.603C234.325 134.495 240.72 132.359 233.576 136.63C226.432 140.896 234.594 149.315 241.042 145.108C247.489 140.901 270.435 140.187 270.435 140.187Z" fill="#333333"/>
<path d="M274.485 142.882C273.865 139.792 271.213 137.675 268.556 138.152C268.523 138.156 268.489 138.17 268.455 138.175C265.784 132.327 261.1 128.447 255.762 128.447C247.455 128.447 240.719 137.843 240.719 149.433C240.719 161.023 242.598 170.419 255.762 170.419C264.069 170.419 270.805 161.023 270.805 149.433C270.805 149.401 270.805 149.365 270.805 149.333C273.457 148.856 275.105 145.966 274.485 142.882Z" fill="#FCA98A"/>
<path d="M258.4 167.575L260.279 181.092C260.687 184.04 258.496 186.739 255.378 187.13C252.26 187.516 249.406 185.444 248.993 182.496C248.926 182.028 248.935 181.537 248.993 181.092L250.871 167.575C251.145 165.612 253.053 164.227 255.128 164.486C256.872 164.704 258.179 166.008 258.4 167.575Z" fill="#FCA98A"/>
<path d="M256.147 197.48C257.679 196.684 258.544 194.899 257.843 193.15L256.301 189.311C255.287 186.789 251.765 186.248 249.959 188.343L247.215 191.528C246.048 192.882 246.173 194.681 247.167 195.898C243.867 201.987 240.292 211.582 238.832 219.51C237.89 224.644 237.535 228.792 237.405 231.178C237.871 230.751 240.537 228.374 242.594 228.047C244.645 227.725 250.799 227.22 253.821 230.233C255.868 230.273 260.879 231.109 260.879 231.109C260.879 231.109 256.377 202.872 256.147 197.48Z" fill="#808080"/>
<path opacity="0.3" d="M311.432 211.682C306.166 201.723 295.635 187.852 287.362 186.784C287.362 186.784 277.388 177.552 259.76 177.339L258.559 168.715L259.895 178.297C261.97 179.529 264.92 180.528 268.557 181.25C275.701 182.673 273.448 192.277 273.823 195.121C274.197 197.965 279.088 188.72 283.979 189.074C288.87 189.428 306.92 199.388 315.198 230.332C323.472 261.277 319.335 275.148 306.546 278.351C299.171 280.196 289.745 275.148 283.081 270.546C295.27 279.514 307.252 284.998 315.948 276.77C334.378 259.342 316.697 221.641 311.432 211.682Z" fill="#303030"/>
<path opacity="0.3" d="M200.853 311.076C200.853 311.076 206.531 326.015 209.332 327.614C212.133 329.213 216.222 337.119 216.222 337.119C216.947 336.074 217.077 334.697 216.428 333.507L211.677 324.77C212.436 323.739 212.888 323.007 212.888 323.007L205.94 306.756L205.743 306.806L200.853 311.076Z" fill="#303030"/>
<g opacity="0.3">
<path d="M171.761 327.614C168.623 330.281 162.863 329.214 162.887 331.799C162.916 334.384 154.21 339.173 154.21 339.173L154.282 339.677C154.287 339.681 154.292 339.686 154.296 339.69C155.752 341.117 158.154 341.153 159.663 339.777L166.75 333.298C168.628 333.852 170.012 334.034 170.012 334.034L173.87 331.313C178.045 328.25 183.738 324.098 191.511 318.459C210.532 304.67 220.679 293.062 225.628 286.265C210.551 306.192 174.59 325.206 171.761 327.614Z" fill="#303030"/>
<path d="M229.264 280.672C229.576 280.104 229.715 279.804 229.715 279.804C229.571 280.095 229.417 280.386 229.264 280.672Z" fill="#303030"/>
<path d="M225.627 286.27C227.035 284.407 228.26 282.54 229.259 280.673C228.692 281.704 227.554 283.621 225.627 286.27Z" fill="#303030"/>
</g>
<path opacity="0.3" d="M174.526 265.548C174.526 265.548 180.541 275.575 185.806 279.81L184.115 282.181C184.115 282.181 177.908 273.376 175.981 268.656C174.929 266.08 174.526 265.921 174.526 265.921V265.548Z" fill="#303030"/>
<path opacity="0.3" d="M273.442 324.788C297.411 319.35 297.757 295.938 296.162 280.291C295.345 283.244 295.71 288.8 290.368 303.961C282.095 327.437 250.501 324.593 235.204 321.508C219.906 318.427 207.967 305.356 207.967 305.356L205.94 306.756L206.132 307.01C206.315 307.119 208.457 308.487 217.778 316.96C227.555 325.856 245.235 331.19 273.442 324.788Z" fill="#303030"/>
<path opacity="0.4" d="M235.454 142.482C230.943 139.279 241.095 135.367 239.591 129.319C238.087 123.272 246.36 122.918 256.699 117.92C253.701 117.957 251.107 118.77 249.747 119.201C247.489 119.915 238.841 116.712 236.583 125.603C234.325 134.494 240.72 132.359 233.576 136.63C226.432 140.896 234.594 149.315 241.042 145.108C241.042 145.108 239.97 145.68 235.454 142.482Z" fill="white"/>
<path opacity="0.3" d="M257.305 128.561C256.801 128.488 256.291 128.452 255.772 128.452C247.466 128.452 240.73 137.848 240.73 149.438C240.73 159.283 242.094 167.543 250.574 169.806L249.003 181.091C248.945 181.536 248.936 182.027 249.003 182.495C249.118 183.317 249.426 184.063 249.873 184.717C250.18 183.636 250.516 182.273 250.881 180.541C252.76 171.65 255.018 172.005 254.643 170.396C253.961 167.47 248.796 167.788 245.784 163.413C243.492 160.087 242.921 152.845 243.732 146.394C245.419 133 255.282 129.202 257.305 128.561Z" fill="white"/>
<path opacity="0.2" d="M269.684 148.17C265.548 150.66 271.188 157.062 262.54 167.021L258.745 170.006C265.629 168.079 270.818 159.601 270.818 149.433C270.818 149.401 270.818 149.365 270.818 149.333C273.47 148.856 275.113 145.967 274.494 142.882C273.874 139.792 271.222 137.675 268.565 138.152C268.56 138.152 268.56 138.152 268.555 138.157L268.56 138.211C268.56 138.211 268.935 140.347 271.193 141.414C273.446 142.482 273.821 145.68 269.684 148.17Z" fill="#303030"/>
</svg>
