<svg width="20" height="20" viewBox="0 0 20 20" fill="none" xmlns="http://www.w3.org/2000/svg">
<path d="M9.25 16.01C9.25 16.4242 9.58579 16.76 10 16.76C10.4142 16.76 10.75 16.4242 10.75 16.01H9.25ZM10.75 16C10.75 15.5858 10.4142 15.25 10 15.25C9.58579 15.25 9.25 15.5858 9.25 16H10.75ZM6 1.75H14V0.25H6V1.75ZM15.25 3V17H16.75V3H15.25ZM14 18.25H6V19.75H14V18.25ZM4.75 17V3H3.25V17H4.75ZM6 18.25C5.30964 18.25 4.75 17.6904 4.75 17H3.25C3.25 18.5188 4.48122 19.75 6 19.75V18.25ZM15.25 17C15.25 17.6904 14.6904 18.25 14 18.25V19.75C15.5188 19.75 16.75 18.5188 16.75 17H15.25ZM14 1.75C14.6904 1.75 15.25 2.30964 15.25 3H16.75C16.75 1.48122 15.5188 0.25 14 0.25V1.75ZM6 0.25C4.48122 0.25 3.25 1.48122 3.25 3H4.75C4.75 2.30964 5.30964 1.75 6 1.75V0.25ZM10.75 16.01V16H9.25V16.01H10.75Z" fill="#B3B3B3"/>
</svg>
